<?xml version="1.0" encoding="UTF-8" standalone="no"?>
<!-- Created with Inkscape (http://www.inkscape.org/) -->

<svg
   width="40"
   height="40"
   viewBox="0 0 10.583333 10.583333"
   version="1.1"
   id="svg5"
   xml:space="preserve"
   inkscape:export-filename="../../../../../../../../home/damsak/bitmap7.svg"
   inkscape:export-xdpi="96"
   inkscape:export-ydpi="96"
   inkscape:version="1.2.2 (b0a8486541, 2022-12-01)"
   sodipodi:docname="start.svg"
   xmlns:inkscape="http://www.inkscape.org/namespaces/inkscape"
   xmlns:sodipodi="http://sodipodi.sourceforge.net/DTD/sodipodi-0.dtd"
   xmlns:xlink="http://www.w3.org/1999/xlink"
   xmlns="http://www.w3.org/2000/svg"
   xmlns:svg="http://www.w3.org/2000/svg"><sodipodi:namedview
     id="namedview7"
     pagecolor="#ffffff"
     bordercolor="#999999"
     borderopacity="1"
     inkscape:showpageshadow="0"
     inkscape:pageopacity="0"
     inkscape:pagecheckerboard="0"
     inkscape:deskcolor="#d1d1d1"
     inkscape:document-units="mm"
     showgrid="false"
     inkscape:zoom="6.3200616"
     inkscape:cx="4.8259023"
     inkscape:cy="23.57572"
     inkscape:current-layer="layer1" /><defs
     id="defs2"><linearGradient
       inkscape:collect="always"
       id="linearGradient4200"><stop
         style="stop-color:#ffa513;stop-opacity:1;"
         offset="0"
         id="stop4196" /><stop
         style="stop-color:#fe5c00;stop-opacity:1;"
         offset="1"
         id="stop4198" /></linearGradient><linearGradient
       inkscape:collect="always"
       id="linearGradient970"><stop
         style="stop-color:#38d9ff;stop-opacity:1;"
         offset="0"
         id="stop966" /><stop
         style="stop-color:#0043e6;stop-opacity:1;"
         offset="1"
         id="stop968" /></linearGradient><filter
       style="color-interpolation-filters:sRGB"
       inkscape:label="Drop Shadow"
       id="filter1228-7-7-3"
       x="-0.12346464"
       y="-0.11814239"
       width="1.2469293"
       height="1.2978173"><feFlood
         flood-opacity="0.658824"
         flood-color="rgb(0,0,0)"
         result="flood"
         id="feFlood1218-5-8-2" /><feComposite
         in="flood"
         in2="SourceGraphic"
         operator="in"
         result="composite1"
         id="feComposite1220-92-4-0" /><feGaussianBlur
         in="composite1"
         stdDeviation="0.4"
         result="blur"
         id="feGaussianBlur1222-28-5-6" /><feOffset
         dx="2.77556e-17"
         dy="0.5"
         result="offset"
         id="feOffset1224-9-0-1" /><feComposite
         in="SourceGraphic"
         in2="offset"
         operator="over"
         result="composite2"
         id="feComposite1226-7-3-5" /></filter><filter
       style="color-interpolation-filters:sRGB"
       inkscape:label="Drop Shadow"
       id="filter1228-7-7-3-4"
       x="-0.18158284"
       y="-0.22674611"
       width="1.3631657"
       height="1.5715891"><feFlood
         flood-opacity="0.658824"
         flood-color="rgb(0,0,0)"
         result="flood"
         id="feFlood1218-5-8-2-7" /><feComposite
         in="flood"
         in2="SourceGraphic"
         operator="in"
         result="composite1"
         id="feComposite1220-92-4-0-6" /><feGaussianBlur
         in="composite1"
         stdDeviation="0.4"
         result="blur"
         id="feGaussianBlur1222-28-5-6-5" /><feOffset
         dx="2.77556e-17"
         dy="0.5"
         result="offset"
         id="feOffset1224-9-0-1-6" /><feComposite
         in="SourceGraphic"
         in2="offset"
         operator="over"
         result="composite2"
         id="feComposite1226-7-3-5-9" /></filter><linearGradient
       inkscape:collect="always"
       xlink:href="#linearGradient970"
       id="linearGradient4030"
       x1="1.7141387"
       y1="6.0850821"
       x2="8.9209824"
       y2="6.0850821"
       gradientUnits="userSpaceOnUse" /><linearGradient
       inkscape:collect="always"
       xlink:href="#linearGradient970"
       id="linearGradient4032"
       x1="0.14683525"
       y1="6.6221442"
       x2="9.8423414"
       y2="6.6221442"
       gradientUnits="userSpaceOnUse" /><linearGradient
       inkscape:collect="always"
       xlink:href="#linearGradient4200"
       id="linearGradient4202"
       x1="5.4945421"
       y1="1.0025378"
       x2="8.8051472"
       y2="9.2428465"
       gradientUnits="userSpaceOnUse" /></defs><g
     inkscape:label="Layer 1"
     inkscape:groupmode="layer"
     id="layer1"
     style="display:inline"><g
       id="g260"><path
         id="path234-6"
         style="display:inline;fill:url(#linearGradient4202);fill-opacity:1;stroke-width:1.074;stroke-linecap:round;stroke-linejoin:round;paint-order:stroke markers fill"
         d="m 6.4290649,0.93379313 c -0.1114814,0.001139 -0.221742,0.004641 -0.3296956,0.009819 C 5.1006698,0.99151254 4.1277158,1.283919 3.2504476,1.7575155 2.7115032,2.0484553 2.2333498,2.3808538 1.8448486,2.8267008 1.8124739,2.8638548 1.780877,2.9016158 1.749764,2.940389 1.718652,2.979162 1.688112,3.018769 1.658297,3.0592448 1.628482,3.0997198 1.598932,3.1410068 1.570447,3.1832682 1.541962,3.2255292 1.514369,3.2688452 1.487248,3.3129761 1.207064,3.7688658 0.96282082,4.2939452 0.94774577,4.8374308 0.93621626,5.2533732 1.016219,5.6376118 1.1637533,5.990332 c 0.018442,0.04409 0.037883,0.087637 0.058394,0.1307414 0.020511,0.043104 0.042108,0.086039 0.064596,0.1281576 0.022488,0.042119 0.045908,0.083406 0.07028,0.1245402 0.024372,0.041134 0.049284,0.081807 0.075448,0.1219563 0.078491,0.1204467 0.1649138,0.2367069 0.2578654,0.3482992 0.030984,0.037198 0.062679,0.073856 0.095085,0.1100708 0.5184904,0.5794314 1.2132383,1.0329575 1.894458,1.361674 0.084711,0.04088 0.1695087,0.081271 0.2547649,0.1209228 h 5.167e-4 c 0.026623,0.012381 0.053424,0.024426 0.080098,0.03669 0.1440259,0.066222 0.2886378,0.1308425 0.434082,0.1937866 l 5.168e-4,5.168e-4 c 0.086056,0.03724 0.1723832,0.073918 0.2588989,0.1100708 l 5.168e-4,5.168e-4 c 0.086518,0.03615 0.1734992,0.071345 0.2604492,0.1064534 l 5.168e-4,5.168e-4 c 0.086952,0.035106 0.1741262,0.06976 0.2614827,0.1038696 3.57e-4,1.395e-4 6.8e-4,3.773e-4 0.00103,5.168e-4 0.1747765,0.068234 0.3503526,0.1344421 0.5265829,0.1989542 3.595e-4,1.318e-4 6.774e-4,3.851e-4 0.00103,5.168e-4 C 6.2207473,9.3576123 6.685907,9.5134518 7.153562,9.6609087 L 6.6895142,10.391097 A 5.2916665,5.2916665 0 0 0 7.9013265,9.8893188 c 8.85e-4,2.619e-4 0.0017,7.718e-4 0.00258,0.00103 a 5.2916665,5.2916665 0 0 0 0.037207,-0.022738 5.2916665,5.2916665 0 0 0 0.1297078,-0.079065 5.2916665,5.2916665 0 0 0 0.2713013,-0.1793172 5.2916665,5.2916665 0 0 0 0.083199,-0.058394 5.2916665,5.2916665 0 0 0 0.1483114,-0.1147217 5.2916665,5.2916665 0 0 0 0.094051,-0.074931 5.2916665,5.2916665 0 0 0 0.1374593,-0.118339 5.2916665,5.2916665 0 0 0 0.082682,-0.075448 5.2916665,5.2916665 0 0 0 0.1462443,-0.1395264 5.2916665,5.2916665 0 0 0 0.05271,-0.054777 5.2916665,5.2916665 0 0 0 0.1472778,-0.1555461 5.2916665,5.2916665 0 0 0 0.3126424,-0.3860229 5.2916665,5.2916665 0 0 0 0.042891,-0.057878 5.2916665,5.2916665 0 0 0 0.1173055,-0.1715658 5.2916665,5.2916665 0 0 0 0.048576,-0.074931 5.2916665,5.2916665 0 0 0 0.063562,-0.097152 c -0.00102,-3.809e-4 -0.00208,-6.53e-4 -0.0031,-0.00103 a 5.2916665,5.2916665 0 0 0 0.6009967,-1.4298869 5.2916665,5.2916665 0 0 0 0.0098,-0.040824 5.2916665,5.2916665 0 0 0 0.06046,-0.2749186 5.2916665,5.2916665 0 0 0 0.0072,-0.038757 5.2916665,5.2916665 0 0 0 0.04082,-0.2599325 5.2916665,5.2916665 0 0 0 0.0093,-0.068213 5.2916665,5.2916665 0 0 0 0.02532,-0.2697509 5.2916665,5.2916665 0 0 0 0.0031,-0.037724 5.2916665,5.2916665 0 0 0 0.01033,-0.3172933 5.2916665,5.2916665 0 0 0 -0.0083,-0.2759522 5.2916665,5.2916665 0 0 0 -0.0026,-0.043925 5.2916665,5.2916665 0 0 0 -0.02325,-0.2661337 5.2916665,5.2916665 0 0 0 -0.04444,-0.3188436 l -0.0021,0.0031 a 5.2916665,5.2916665 0 0 0 -0.05219,-0.263033 l 0.0031,0.00362 a 5.2916665,5.2916665 0 0 0 -0.03514,-0.1426269 5.2916665,5.2916665 0 0 0 -0.01809,-0.072864 5.2916665,5.2916665 0 0 0 -0.0093,-0.032556 5.2916665,5.2916665 0 0 0 -0.07183,-0.2356446 5.2916665,5.2916665 0 0 0 -0.03204,-0.095601 5.2916665,5.2916665 0 0 0 -0.100252,-0.2671671 5.2916665,5.2916665 0 0 0 -0.0015,-0.0031 5.2916665,5.2916665 0 0 0 -0.01912,-0.044442 5.2916665,5.2916665 0 0 0 -0.10387,-0.2299602 5.2916665,5.2916665 0 0 0 -0.03927,-0.080615 A 5.2916665,5.2916665 0 0 0 9.8888021,2.6727051 5.2916665,5.2916665 0 0 0 9.8479777,2.6039754 5.2916665,5.2916665 0 0 0 9.7234375,2.4034709 5.2916665,5.2916665 0 0 0 9.696049,2.3595459 c -8.628e-4,-6.707e-4 -0.00172,-0.0014 -0.00258,-0.00207 A 5.2916665,5.2916665 0 0 0 9.0692139,1.5880168 c -1.57e-5,-5.233e-4 1.42e-5,-0.00103 0,-0.00155 A 5.2916665,5.2916665 0 0 0 9.0211548,1.5399577 5.2916665,5.2916665 0 0 0 8.8909302,1.4149007 5.2916665,5.2916665 0 0 0 8.7937785,1.326534 5.2916665,5.2916665 0 0 0 8.6614868,1.2143962 5.2916665,5.2916665 0 0 0 8.6092936,1.1704712 5.2916665,5.2916665 0 0 0 8.5896566,1.153418 c -3.326e-4,3.572e-4 -7.037e-4,6.805e-4 -0.00103,0.00103 -0.1050481,0.1123162 -0.2494082,0.184914 -0.4082438,0.1767334 -0.00174,-8.97e-5 -0.00343,-4.107e-4 -0.00517,-5.168e-4 -0.016704,-0.00102 -0.033141,-0.00272 -0.049609,-0.00517 -0.03259,-0.00484 -0.064816,-0.012236 -0.096635,-0.021704 C 8.0130763,1.2990664 7.99716,1.2939365 7.981425,1.2882935 7.966707,1.2830135 7.952103,1.2771872 7.9375,1.2712402 7.93643,1.2708054 7.93547,1.2701302 7.9344,1.2696902 7.919794,1.2636902 7.904987,1.2576152 7.890475,1.2510872 7.889425,1.2506159 7.888425,1.2500072 7.887375,1.2495372 7.857095,1.2358392 7.826956,1.2212412 7.796941,1.2061292 7.7961175,1.2057142 7.795181,1.2055079 7.794361,1.2050992 7.777564,1.1966292 7.760995,1.1878792 7.744235,1.1792612 7.730254,1.1720612 7.716354,1.1647242 7.702377,1.1575572 7.671958,1.1419732 7.641446,1.1266322 7.61091,1.1120822 7.6105589,1.1119147 7.6102242,1.1117327 7.60988,1.1115655 7.594787,1.1043855 7.579562,1.0975965 7.564405,1.0908945 7.564053,1.0907388 7.5637198,1.0905331 7.563375,1.0903777 7.548011,1.0835977 7.532837,1.0768697 7.517383,1.0707407 h -5.168e-4 c -0.00412,-0.00163 -0.00828,-0.00307 -0.012402,-0.00465 -0.027188,-0.01041 -0.054574,-0.019772 -0.082166,-0.027389 -0.025004,-0.0069 -0.050091,-0.013022 -0.075448,-0.01912 -0.00122,-2.927e-4 -0.0024,-7.461e-4 -0.00362,-0.00103 -0.013317,-0.00318 -0.026902,-0.00633 -0.040308,-0.0093 -0.00358,-7.929e-4 -0.00726,-0.00129 -0.010852,-0.00207 C 7.2554222,0.9992377 7.2187022,0.9914142 7.1814826,0.9849608 7.1450656,0.9786468 7.1082666,0.9734242 7.0714118,0.9684243 c -0.00449,-6.111e-4 -0.00894,-0.001475 -0.013436,-0.002067 -0.00428,-5.624e-4 -0.00863,-0.001005 -0.012919,-0.00155 C 7.0080578,0.9600973 6.9707378,0.9559363 6.9334357,0.952405 H 6.932919 C 6.891124,0.948455 6.849374,0.945206 6.8073452,0.942586 6.7820262,0.941008 6.7567392,0.940109 6.7313812,0.938969 6.6954072,0.937335 6.6593542,0.936189 6.6233774,0.935352 6.6065394,0.93496703 6.5895564,0.93454543 6.5727344,0.934318 c -0.01984,-2.7434e-4 -0.039623,-4.4804e-4 -0.059428,-5.1677e-4 -0.028157,-8.784e-5 -0.05619,-2.8641e-4 -0.084233,0 z M 1.8898071,9.3405151 A 5.2916665,5.2916665 0 0 0 2.04587,9.4686727 c -0.00129,-0.0019 -0.00179,-0.00275 -0.0031,-0.00465 -0.00729,-0.01194 -0.015231,-0.024597 -0.023254,-0.037207 -0.044666,-0.02685 -0.08717,-0.05653 -0.1297079,-0.0863 z" /><path
         id="path954-36-6-5"
         style="display:inline;fill:url(#linearGradient4032);fill-opacity:1;stroke:none;stroke-width:0.244066;stroke-dasharray:none;stroke-opacity:1;paint-order:markers fill stroke;filter:url(#filter1228-7-7-3)"
         d="M 7.1092049,2.5620486 C 7.0980928,2.557996 7.0869396,2.5539927 7.0757677,2.5500846 6.9685184,2.5125669 6.8598937,2.4823357 6.7502272,2.4676755 6.537244,2.4392057 6.329607,2.3805125 6.1143926,2.3568325 5.8473344,2.3274625 5.5727577,2.310161 5.2970617,2.3092854 4.8375679,2.3078259 4.3747906,2.3513561 3.9378347,2.4551991 2.7987547,2.725897 1.5684027,3.5503384 1.2000692,4.711474 c -0.123649,0.3898282 -0.108445,0.8104582 -0.045775,1.2093494 0.06583,0.419084 0.2179578,0.8279338 0.4155394,1.2014953 0.522662,0.988124 1.3620435,1.818015 2.1997177,2.5439669 0.2957579,0.2563109 0.597392,0.5061874 0.9029874,0.7510244 A 4.1796573,4.1796573 0 0 0 5.7305741,10.38042 C 4.7793633,9.6682828 3.8582825,8.9096992 3.0336634,8.0525853 2.2052162,7.1915455 1.4744765,5.9457833 1.965542,4.7262957 2.1259606,4.3279415 2.4510397,4.0061559 2.7837365,3.7454788 3.299016,3.3417326 3.8779825,3.1676984 4.5166892,3.0777561 5.2964367,2.9679398 6.0972831,3.0185863 6.850054,3.2573788 7.1755344,3.3606271 7.5248539,3.4902031 7.8036638,3.6911007 7.9734891,3.8134696 8.0905978,4.0322983 8.2847664,4.1159016 8.453665,4.1886209 8.6471421,4.125192 8.772096,3.9979787 9.0242683,3.7412958 8.7947646,3.4123834 8.5733663,3.2308047 8.2834994,2.9930612 7.9421861,2.894798 7.5997535,2.7618042 7.4507903,2.7039517 7.2980702,2.6330896 7.1425002,2.5743952 7.131388,2.5702028 7.120317,2.566101 7.1092049,2.5620486 Z"
         transform="matrix(1.187064,-0.44019153,0.44019153,1.187064,-3.4659537,0.0922303)" /><path
         id="path954-36-6-5-3"
         style="display:inline;fill:url(#linearGradient4030);fill-opacity:1;stroke:none;stroke-width:0.007281;filter:url(#filter1228-7-7-3-4)"
         d="M 5.9071555,3.761954 C 5.8569626,3.743233 5.8056331,3.7304276 5.7553848,3.7239576 c -0.03533,-0.00455 -0.068881,-0.00677 -0.1024927,-0.00536 -0.033612,0.00141 -0.067385,0.00611 -0.1021321,0.014802 -0.05412,0.01357 -0.1043476,0.033342 -0.1520234,0.062471 C 5.0972027,3.9801469 5.2012178,4.2969857 5.3099401,4.568306 5.3728301,4.7252458 5.49724,4.9397274 5.6841216,4.9656473 6.0181068,5.0119792 6.3709462,4.583376 6.3431476,4.2614461 6.3233221,4.0318568 6.1246591,3.8430789 5.9071555,3.761954 Z m 1.2743136,1.4119874 c -0.02153,-0.00691 -0.043903,-0.011393 -0.066453,-0.013324 -0.010969,-9.375e-4 -0.021732,-0.00157 -0.032491,-0.0016 -0.075331,-2.275e-4 -0.1466056,0.021547 -0.2138587,0.057825 -0.05578,0.0301 -0.1033022,0.069027 -0.146048,0.1156206 C 6.5517018,5.5187311 6.6025569,5.77497 6.73508,5.9691826 6.81507,6.0864019 6.928102,6.1791203 6.9958613,6.3048826 7.1037869,6.5051988 7.1938689,6.796426 7.4646368,6.8204495 7.738402,6.8447495 7.9817086,6.6201415 7.9595808,6.3427206 7.9402607,6.1004832 7.7681693,5.9063298 7.6420565,5.7104152 7.5657067,5.5918139 7.5053299,5.4603112 7.4165841,5.3499349 7.3617971,5.281798 7.2871445,5.2151924 7.2025178,5.1817468 c -0.00705,-0.00279 -0.013872,-0.0055 -0.021049,-0.00781 z M 5.4440789,5.3089162 c -0.028807,-0.00961 -0.059176,-0.015384 -0.090736,-0.017104 -0.010096,-5.5e-4 -0.020318,-8.874e-4 -0.030578,-8.911e-4 -0.01026,-3.8e-6 -0.020785,7.47e-5 -0.031146,6.397e-4 C 4.980811,5.3085363 4.6199147,5.5690327 4.5016649,5.8440368 4.402095,6.0755874 4.605096,6.3889564 4.8501349,6.4081523 5.1511528,6.4317321 5.5754723,6.1972694 5.705896,5.9270939 5.8104652,5.710495 5.6831506,5.3985775 5.4563255,5.3134575 c -0.00405,-0.00152 -0.00813,-0.00317 -0.012247,-0.00454 z M 3.228997,5.3890792 c -0.02628,-0.00913 -0.05516,-0.015281 -0.087347,-0.018025 -0.010034,-8.5e-4 -0.020361,-0.00168 -0.030294,-0.00166 -0.069536,1.407e-4 -0.1364298,0.021649 -0.1966625,0.057237 -0.3723736,0.2200183 -0.2513081,0.664692 -0.046227,0.9558199 0.4078732,0.5790638 0.941231,1.0094653 1.5713716,1.3223272 0.2431851,0.120693 0.5439216,0.2655068 0.8223555,0.2453088 0.08433,-0.006 0.167076,-0.020623 0.2376515,-0.070333 C 5.713087,7.7294383 5.6467078,7.4460703 5.4664472,7.305362 5.2148737,7.1089834 4.8879485,7.0522723 4.5909285,6.9580618 4.2849457,6.8610025 3.9943562,6.7112581 3.7859966,6.4614988 3.6862273,6.3419129 3.5999886,6.2110639 3.5509706,6.0622142 3.4784622,5.8420739 3.4830395,5.4773055 3.228997,5.3890792 Z"
         transform="matrix(1.2849167,-0.47647764,0.47647764,1.2849167,-3.8120221,-0.06875005)" /></g></g></svg>
