<?xml version="1.0" encoding="UTF-8" standalone="no"?>
<!-- Created with Inkscape (http://www.inkscape.org/) -->

<svg
   width="40"
   height="40"
   viewBox="0 0 10.583333 10.583333"
   version="1.1"
   id="svg5"
   xml:space="preserve"
   inkscape:export-filename="./bitmap4.svg"
   inkscape:export-xdpi="96"
   inkscape:export-ydpi="96"
   xmlns:inkscape="http://www.inkscape.org/namespaces/inkscape"
   xmlns:sodipodi="http://sodipodi.sourceforge.net/DTD/sodipodi-0.dtd"
   xmlns:xlink="http://www.w3.org/1999/xlink"
   xmlns="http://www.w3.org/2000/svg"
   xmlns:svg="http://www.w3.org/2000/svg"><sodipodi:namedview
     id="namedview7"
     pagecolor="#ffffff"
     bordercolor="#999999"
     borderopacity="1"
     inkscape:showpageshadow="0"
     inkscape:pageopacity="0"
     inkscape:pagecheckerboard="0"
     inkscape:deskcolor="#d1d1d1"
     inkscape:document-units="mm"
     showgrid="false" /><defs
     id="defs2"><linearGradient
       inkscape:collect="always"
       id="linearGradient970"><stop
         style="stop-color:#38d9ff;stop-opacity:1;"
         offset="0"
         id="stop966" /><stop
         style="stop-color:#0043e6;stop-opacity:1;"
         offset="1"
         id="stop968" /></linearGradient><linearGradient
       inkscape:collect="always"
       xlink:href="#linearGradient970"
       id="linearGradient2297"
       gradientUnits="userSpaceOnUse"
       x1="5.2916665"
       y1="0"
       x2="6.6748266"
       y2="10.583333"
       gradientTransform="translate(2.5110691e-6,-2.4273447e-4)" /><filter
       style="color-interpolation-filters:sRGB"
       inkscape:label="Drop Shadow"
       id="filter1228-7-7-3"
       x="-0.12346463"
       y="-0.11814239"
       width="1.2469293"
       height="1.2978173"><feFlood
         flood-opacity="0.658824"
         flood-color="rgb(0,0,0)"
         result="flood"
         id="feFlood1218-5-8-2" /><feComposite
         in="flood"
         in2="SourceGraphic"
         operator="in"
         result="composite1"
         id="feComposite1220-92-4-0" /><feGaussianBlur
         in="composite1"
         stdDeviation="0.4"
         result="blur"
         id="feGaussianBlur1222-28-5-6" /><feOffset
         dx="2.77556e-17"
         dy="0.5"
         result="offset"
         id="feOffset1224-9-0-1" /><feComposite
         in="SourceGraphic"
         in2="offset"
         operator="over"
         result="composite2"
         id="feComposite1226-7-3-5" /></filter></defs><g
     inkscape:label="Layer 1"
     inkscape:groupmode="layer"
     id="layer1"
     style="display:inline"><path
       id="path234-6"
       style="display:inline;fill:url(#linearGradient2297);fill-opacity:1;stroke-width:1.074;stroke-linecap:round;stroke-linejoin:round;paint-order:stroke markers fill"
       d="m 6.4290649,0.93379313 c -0.111482,0.001139 -0.2217417,0.004641 -0.3296956,0.009819 C 5.1006668,0.99151314 4.1277185,1.2839178 3.2504476,1.7575155 2.7115017,2.0484562 2.233351,2.3808523 1.8448486,2.8267008 c -0.032375,0.037154 -0.063972,0.074915 -0.095085,0.1136882 -0.031112,0.038773 -0.061652,0.07838 -0.091467,0.1188558 -0.029815,0.040475 -0.059365,0.081762 -0.08785,0.1240234 -0.028485,0.042261 -0.056078,0.085577 -0.083199,0.1297079 C 1.207063,3.7688673 0.96282088,4.2939434 0.94774577,4.8374308 0.93621623,5.2533744 1.0162187,5.6376106 1.1637533,5.990332 c 0.018442,0.04409 0.037883,0.087637 0.058394,0.1307414 0.020511,0.043104 0.042108,0.086039 0.064596,0.1281576 0.022488,0.042119 0.045908,0.083406 0.07028,0.1245402 0.024372,0.041134 0.049284,0.081807 0.075448,0.1219563 0.078491,0.120447 0.1649135,0.2367066 0.2578654,0.3482992 0.030984,0.037198 0.062679,0.073856 0.095085,0.1100708 0.5184919,0.5794332 1.2132362,1.0329566 1.894458,1.361674 0.084711,0.04088 0.1695087,0.081271 0.2547649,0.1209228 1.41e-4,6.56e-5 3.757e-4,-6.56e-5 5.167e-4,0 0.026623,0.012381 0.053424,0.024426 0.080098,0.03669 0.1440265,0.066222 0.2886372,0.1308422 0.434082,0.1937866 2.083e-4,9.02e-5 3.085e-4,4.266e-4 5.168e-4,5.168e-4 0.086056,0.03724 0.1723829,0.073918 0.2588989,0.1100708 2.086e-4,8.72e-5 3.082e-4,4.295e-4 5.168e-4,5.168e-4 0.086518,0.03615 0.1734989,0.071345 0.2604492,0.1064534 2.084e-4,8.42e-5 3.083e-4,4.326e-4 5.168e-4,5.168e-4 0.086952,0.035106 0.1741259,0.06976 0.2614827,0.1038696 3.57e-4,1.395e-4 6.765e-4,3.773e-4 0.00103,5.168e-4 0.1747768,0.068234 0.350352,0.1344418 0.5265829,0.1989542 3.595e-4,1.318e-4 6.739e-4,3.851e-4 0.00103,5.168e-4 0.706015,0.2584163 1.4230203,0.4881239 2.1435384,0.7012492 A 5.2916665,5.2916665 0 0 0 9.8190389,8.0300008 C 9.564603,7.9347732 9.3016988,7.849875 9.064563,7.720459 8.7168461,7.5307647 8.5549985,7.045264 8.9296875,6.7835653 c 0.017248,-0.012065 0.035148,-0.022599 0.053227,-0.032039 0.018079,-0.00944 0.036338,-0.017786 0.055294,-0.025321 0.037912,-0.015072 0.077708,-0.026508 0.118339,-0.036174 0.013854,-0.0033 0.027632,-0.00576 0.041341,-0.00775 0.00621,-9.305e-4 0.012426,-0.0014 0.018604,-0.00207 0.011765,-0.00123 0.023481,-0.00276 0.03514,-0.0031 0.00103,-2.91e-5 0.00207,2.19e-5 0.0031,0 0.0098,-2.079e-4 0.019734,1.26e-4 0.029455,5.168e-4 0.00104,4.13e-5 0.00206,-4.8e-5 0.0031,0 0.00208,9.72e-5 0.00412,3.929e-4 0.0062,5.167e-4 0.00868,5.166e-4 0.017218,0.0011 0.025838,0.00207 7.072e-4,7.88e-5 0.00136,4.35e-4 0.00207,5.168e-4 0.014102,0.00163 0.027913,0.00396 0.041858,0.00672 0.00239,4.75e-4 0.00484,5.267e-4 0.00723,0.00103 0.00122,2.59e-4 0.0024,7.664e-4 0.00362,0.00103 0.017056,0.00373 0.034337,0.00819 0.05116,0.013436 6.787e-4,2.119e-4 0.00139,3.026e-4 0.00207,5.168e-4 8.809e-4,2.777e-4 0.0017,7.519e-4 0.00258,0.00103 0.017087,0.00547 0.033794,0.011759 0.050643,0.018603 6.64e-4,2.703e-4 0.0014,2.446e-4 0.00207,5.168e-4 0.034001,0.013947 0.06772,0.030638 0.1007691,0.049093 0.00278,0.00155 0.00549,0.00307 0.00827,0.00465 0.017714,0.010074 0.035266,0.020499 0.05271,0.031523 2.009e-4,1.271e-4 3.158e-4,3.896e-4 5.167e-4,5.168e-4 0.016435,0.010397 0.032377,0.02151 0.048576,0.032556 0.00115,7.853e-4 0.00247,0.00128 0.00362,0.00207 3.163e-4,2.167e-4 7.173e-4,2.999e-4 0.00103,5.168e-4 0.028614,0.019625 0.056861,0.040185 0.084749,0.060978 0.03241,0.024165 0.064149,0.04863 0.095601,0.072864 0.00678,0.00522 0.013938,0.010325 0.020671,0.015503 0.03064,0.023566 0.061199,0.046983 0.09095,0.06873 0.011381,0.00832 0.022854,0.01639 0.034106,0.024288 0.0047,0.00331 0.0093,0.00711 0.01395,0.010335 0.01686,0.011586 0.03355,0.022248 0.05013,0.032556 0.03646,0.02267 0.07346,0.044562 0.110588,0.066146 0.0072,0.00417 0.01451,0.00826 0.0217,0.012402 a 5.2916665,5.2916665 0 0 0 0.36277,-1.9166751 5.2916665,5.2916665 0 0 0 -0.132808,-1.1647868 l 0.0031,0.00362 a 5.2916665,5.2916665 0 0 0 -0.03514,-0.1426269 5.2916665,5.2916665 0 0 0 -0.01809,-0.072864 5.2916665,5.2916665 0 0 0 -0.0093,-0.032556 5.2916665,5.2916665 0 0 0 -0.07183,-0.2356446 5.2916665,5.2916665 0 0 0 -0.03204,-0.095601 5.2916665,5.2916665 0 0 0 -0.100252,-0.2671671 5.2916665,5.2916665 0 0 0 -0.0015,-0.0031 5.2916665,5.2916665 0 0 0 -0.01912,-0.044442 5.2916665,5.2916665 0 0 0 -0.10387,-0.2299602 5.2916665,5.2916665 0 0 0 -0.03927,-0.080615 A 5.2916665,5.2916665 0 0 0 9.8888021,2.6727051 5.2916665,5.2916665 0 0 0 9.8479777,2.6039754 5.2916665,5.2916665 0 0 0 9.7234375,2.4034709 5.2916665,5.2916665 0 0 0 9.696049,2.3595459 c -8.628e-4,-6.707e-4 -0.00172,-0.0014 -0.00258,-0.00207 A 5.2916665,5.2916665 0 0 0 9.0692139,1.5880168 c -1.57e-5,-5.233e-4 1.42e-5,-0.00103 0,-0.00155 A 5.2916665,5.2916665 0 0 0 9.0211548,1.5399577 5.2916665,5.2916665 0 0 0 8.8909302,1.4149007 5.2916665,5.2916665 0 0 0 8.7937785,1.326534 5.2916665,5.2916665 0 0 0 8.6614868,1.2143962 5.2916665,5.2916665 0 0 0 8.6092936,1.1704712 5.2916665,5.2916665 0 0 0 8.5896566,1.153418 c -3.326e-4,3.572e-4 -7.001e-4,6.77e-4 -0.00103,0.00103 -0.1050487,0.1123165 -0.2494079,0.184914 -0.4082438,0.1767334 -0.00174,-8.97e-5 -0.00343,-4.107e-4 -0.00517,-5.168e-4 -0.016704,-0.00102 -0.033141,-0.00272 -0.049609,-0.00517 -0.03259,-0.00484 -0.064816,-0.012236 -0.096635,-0.021704 -0.015891,-0.00473 -0.031807,-0.00986 -0.047542,-0.015503 -0.014718,-0.00528 -0.029322,-0.011106 -0.043925,-0.017053 -0.00107,-4.348e-4 -0.00203,-0.00111 -0.0031,-0.00155 -0.014606,-0.006 -0.029413,-0.012075 -0.043925,-0.018603 -0.00105,-4.713e-4 -0.00205,-0.00108 -0.0031,-0.00155 -0.03028,-0.013698 -0.060419,-0.028296 -0.090434,-0.043408 -8.235e-4,-4.15e-4 -0.00176,-6.178e-4 -0.00258,-0.00103 -0.016797,-0.00847 -0.033366,-0.01722 -0.050126,-0.025838 -0.013981,-0.0072 -0.027881,-0.014537 -0.041858,-0.021704 -0.030419,-0.015584 -0.060931,-0.030925 -0.091467,-0.045475 -3.511e-4,-1.675e-4 -6.823e-4,-3.495e-4 -0.00103,-5.167e-4 -0.015093,-0.00718 -0.030318,-0.013969 -0.045475,-0.020671 -3.52e-4,-1.557e-4 -6.816e-4,-3.614e-4 -0.00103,-5.168e-4 -0.015364,-0.00678 -0.030538,-0.013508 -0.045992,-0.019637 -1.512e-4,-6.01e-5 -3.655e-4,5.99e-5 -5.168e-4,0 -0.00412,-0.00163 -0.00828,-0.00307 -0.012402,-0.00465 C 7.477278,1.0556751 7.449892,1.0463121 7.4223,1.0386961 7.397296,1.0317961 7.372209,1.0256741 7.346852,1.0195761 7.345632,1.0192834 7.344452,1.0188335 7.343232,1.0185461 7.329915,1.0153661 7.31633,1.0122161 7.302924,1.0092461 7.299344,1.0084532 7.295664,1.0079561 7.292072,1.0071761 7.255424,0.9992321 7.218704,0.9914086 7.1814844,0.9849552 7.1450674,0.9786412 7.1082684,0.9734186 7.0714136,0.9684187 c -0.00449,-6.111e-4 -0.00894,-0.001475 -0.013436,-0.002067 -0.00428,-5.624e-4 -0.00863,-0.001005 -0.012919,-0.00155 -0.036999,-0.00471 -0.074319,-0.008871 -0.1116211,-0.0124023 -1.706e-4,-1.621e-5 -3.461e-4,1.618e-5 -5.167e-4,0 C 6.8911258,0.9484494 6.8493758,0.9452004 6.807347,0.9425804 6.782028,0.9410024 6.756742,0.9401034 6.731383,0.9389634 6.695409,0.9373294 6.659356,0.9361834 6.6233792,0.9353464 c -0.016838,-3.8497e-4 -0.033821,-8.0705e-4 -0.050643,-0.001034 -0.01984,-2.7434e-4 -0.039623,-4.4804e-4 -0.059428,-5.1677e-4 -0.028157,-8.784e-5 -0.05619,-2.8641e-4 -0.084233,0 z M 5.2022664,1.9575033 C 5.4961679,1.9580605 5.815091,2.0946984 5.9396891,2.3585124 6.114399,2.7284273 5.8842232,3.3925204 5.4673665,3.4845418 5.2924288,3.5231633 5.1124853,3.4202464 4.9728231,3.2995402 4.949546,3.2794225 4.9275088,3.2591057 4.9066772,3.238562 4.8858457,3.2180184 4.8662501,3.1974106 4.8482829,3.1775838 4.7240368,3.0404756 4.5962844,2.8893072 4.5340902,2.7285156 4.5263159,2.7084167 4.5195233,2.6884464 4.5139364,2.6680542 4.499969,2.6170737 4.4931864,2.565135 4.4958496,2.5125081 c 5.327e-4,-0.010525 0.00128,-0.021454 0.00258,-0.032039 0.010395,-0.084678 0.046032,-0.1710296 0.1152385,-0.2588989 0.043772,-0.055564 0.094692,-0.1011451 0.1529622,-0.1410766 0.018709,-0.012808 0.037751,-0.024252 0.056844,-0.034623 0.019093,-0.010371 0.038238,-0.019671 0.057878,-0.027905 0.01964,-0.00823 0.039858,-0.015342 0.060461,-0.021704 0.020603,-0.00636 0.041591,-0.011978 0.063562,-0.017053 0.062496,-0.014438 0.1290639,-0.021833 0.1968872,-0.021704 z m 2.1337199,1.1151774 c 0.00953,-4.262e-4 0.019341,-2.042e-4 0.028939,0 0.11518,0.00245 0.2331163,0.048654 0.3281454,0.1054199 0.1539337,0.091959 0.2834911,0.2214832 0.4263305,0.3286621 0.2359443,0.1770495 0.5256931,0.3317705 0.6552572,0.6108154 0.027822,0.059921 0.04379,0.1219397 0.049093,0.1834514 0.00177,0.020504 0.0021,0.040626 0.00155,0.060978 -5.464e-4,0.020352 -0.00188,0.040942 -0.00465,0.060978 -0.00277,0.020037 -0.00699,0.039871 -0.011886,0.059428 -0.00489,0.019557 -0.010646,0.038448 -0.01757,0.057361 -0.00692,0.018913 -0.014909,0.037706 -0.023771,0.05581 -0.00886,0.018104 -0.01875,0.035578 -0.029456,0.05271 -0.010706,0.017132 -0.022167,0.033614 -0.034623,0.049609 -0.012456,0.015996 -0.025679,0.031814 -0.039791,0.046509 -0.014112,0.014695 -0.029285,0.028628 -0.044958,0.041858 -0.015673,0.01323 -0.031952,0.025606 -0.049093,0.037207 -0.017141,0.011601 -0.034712,0.022231 -0.053227,0.032039 -0.018515,0.00981 -0.038083,0.019021 -0.057878,0.026872 -0.019794,0.00785 -0.039998,0.014425 -0.060978,0.020154 -0.062249,0.017001 -0.1212978,0.019918 -0.1772501,0.012402 -0.018651,-0.00251 -0.03675,-0.00612 -0.054777,-0.010852 -0.018027,-0.00473 -0.035785,-0.010351 -0.053227,-0.017053 C 8.0249561,4.8535303 7.9447221,4.7966024 7.8692871,4.7325277 7.8391131,4.7068978 7.8097438,4.6804796 7.7809204,4.6534627 7.7232737,4.599429 7.6680786,4.5444532 7.6140055,4.4968831 7.5970312,4.4819505 7.5793626,4.4677932 7.5612956,4.4545085 7.4348262,4.361515 7.284902,4.3041236 7.1566691,4.2131795 6.9442145,4.0624983 6.7850313,3.827729 6.8295573,3.5729085 c 0.00318,-0.018201 0.00761,-0.036392 0.012919,-0.054777 0.00531,-0.018385 0.011564,-0.036772 0.01912,-0.055294 0.030232,-0.074125 0.069509,-0.1412539 0.1224731,-0.2015381 0.063864,-0.072668 0.1388874,-0.1298909 0.2284099,-0.1627807 0.012788,-0.0047 0.025841,-0.00869 0.039274,-0.012402 0.011424,-0.00316 0.023002,-0.00573 0.034623,-0.00775 0.00583,-0.00105 0.0117,-0.00181 0.01757,-0.00258 0.00121,-1.591e-4 0.00241,-3.693e-4 0.00362,-5.167e-4 0.00257,-2.983e-4 0.00517,-2.691e-4 0.00775,-5.168e-4 0.00691,-6.961e-4 0.013694,-0.00176 0.020671,-0.00207 z M 5.350061,3.9976888 c 0.01917,7.48e-5 0.038406,0.00118 0.057361,0.00362 0.018954,0.00244 0.037735,0.0062 0.056327,0.010852 0.018593,0.00465 0.036692,0.010354 0.054777,0.017053 0.018085,0.0067 0.035796,0.014664 0.053227,0.023254 0.1394481,0.068726 0.2560384,0.1952998 0.3116089,0.3395142 0.00695,0.018027 0.012591,0.036283 0.01757,0.054777 0.00498,0.018494 0.00902,0.037007 0.011886,0.05581 0.00287,0.018803 0.00456,0.03789 0.00517,0.056844 6.063e-4,0.018954 2.488e-4,0.037897 -0.00155,0.056844 -0.00449,0.047266 -0.014868,0.096101 -0.029972,0.1452108 -0.00755,0.024555 -0.015923,0.049209 -0.025838,0.073897 -0.00992,0.024688 -0.020988,0.049295 -0.033073,0.073897 -0.108761,0.2214237 -0.3015714,0.4346889 -0.5074626,0.5606893 -0.022877,0.014 -0.046141,0.027028 -0.069246,0.038757 -0.023106,0.011729 -0.046106,0.022283 -0.069246,0.031523 -0.023141,0.00924 -0.046265,0.017239 -0.069246,0.023771 -0.056124,0.015952 -0.1150424,0.019085 -0.1736328,0.011369 -0.01953,-0.00257 -0.039054,-0.00649 -0.058394,-0.011369 -0.01934,-0.00488 -0.038442,-0.011065 -0.057361,-0.018087 -0.018919,-0.00702 -0.037545,-0.014767 -0.05581,-0.023771 -0.018266,-0.009 -0.036363,-0.019148 -0.053743,-0.029972 -0.017381,-0.010824 -0.034379,-0.022141 -0.050643,-0.034623 -0.016264,-0.012482 -0.031594,-0.025812 -0.046509,-0.039791 -0.014915,-0.013979 -0.02904,-0.028612 -0.042375,-0.043925 -0.013335,-0.015313 -0.026201,-0.031574 -0.037724,-0.048059 -0.011522,-0.016485 -0.022044,-0.033664 -0.031523,-0.05116 -0.037913,-0.069984 -0.058327,-0.1471857 -0.05426,-0.2268595 0.00121,-0.023656 0.00379,-0.047572 0.00723,-0.07183 0.00345,-0.024258 0.00787,-0.048716 0.013436,-0.073381 0.0668,-0.2959771 0.281786,-0.614117 0.5410523,-0.7854817 0.021605,-0.01428 0.04347,-0.027648 0.065629,-0.039791 0.022159,-0.012143 0.044587,-0.023263 0.067179,-0.033073 0.01205,-0.00523 0.02451,-0.00996 0.03669,-0.014469 0.01218,-0.00451 0.024464,-0.00861 0.03669,-0.012402 0.043681,-0.013543 0.087957,-0.019808 0.1317749,-0.019637 z M 2.7393677,5.0679077 c 0.0851,-0.00177 0.1584872,0.024327 0.2237589,0.067696 0.016318,0.010842 0.032204,0.022784 0.047542,0.035657 0.1687266,0.1416042 0.2814142,0.3962566 0.4072103,0.5539713 0.12371,0.1551172 0.2836791,0.2724812 0.4547526,0.3705201 0.3572784,0.2047622 0.7681422,0.2546032 1.1740886,0.2351277 0.098513,-0.00473 0.1980197,-0.01326 0.298173,-0.021187 0.050077,-0.00396 0.1006836,-0.00759 0.1508952,-0.010852 0.2510578,-0.0163 0.5024331,-0.017572 0.7431071,0.058911 0.1379598,0.04384 0.2578747,0.1427971 0.3198771,0.2645833 0.00775,0.015223 0.014289,0.030626 0.020154,0.046509 0.00586,0.015882 0.011163,0.032159 0.014986,0.048576 0.00382,0.016417 0.00664,0.032781 0.00827,0.049609 0.00813,0.084141 -0.012371,0.1727673 -0.070797,0.2578654 -0.046422,0.067557 -0.1094831,0.1149483 -0.1793172,0.1529622 -0.023278,0.012671 -0.047464,0.024079 -0.07183,0.03514 C 5.9586086,7.3595371 5.53787,7.3200154 5.1960653,7.2837931 4.3103281,7.1897885 3.4877407,6.9136546 2.7486694,6.4058105 2.6557705,6.3419823 2.5648392,6.2644364 2.4861532,6.1774007 2.4664817,6.1556418 2.4478125,6.1331027 2.4298258,6.1102214 2.4118392,6.08734 2.3946495,6.0643308 2.3786662,6.0404582 2.2188333,5.8017324 2.167062,5.5165247 2.3828003,5.2508423 c 0.055836,-0.068757 0.1257746,-0.1237365 0.208256,-0.1545125 0.011782,-0.0044 0.024405,-0.00796 0.03669,-0.011369 0.019708,-0.00546 0.038784,-0.00959 0.057361,-0.012402 0.018576,-0.00281 0.036653,-0.00428 0.05426,-0.00465 z M 1.8898071,9.3405151 A 5.2916665,5.2916665 0 0 0 2.04587,9.4686727 c -0.00129,-0.0019 -0.00179,-0.00275 -0.0031,-0.00465 -0.00729,-0.01194 -0.015231,-0.024597 -0.023254,-0.037207 -0.044666,-0.02685 -0.08717,-0.05653 -0.1297079,-0.0863 z" /><path
       id="path954-36-6-5"
       style="display:inline;fill:#ffffff;fill-opacity:1;stroke:none;stroke-width:0.007281;filter:url(#filter1228-7-7-3)"
       d="M 7.1425002,2.5743952 C 7.1202758,2.5660103 7.0981115,2.5579008 7.0757677,2.5500846 6.968518,2.5125669 6.8598939,2.4823359 6.7502272,2.4676755 6.5372434,2.4392057 6.3296074,2.3805125 6.1143926,2.3568325 5.8473338,2.3274625 5.5727583,2.310161 5.2970617,2.3092854 4.8375671,2.3078259 4.3747914,2.3513559 3.9378347,2.4551991 2.7987525,2.7258976 1.5684035,3.550336 1.2000692,4.711474 1.07642,5.101303 1.091624,5.5219314 1.1542937,5.9208234 1.2201237,6.3399082 1.3722511,6.7487564 1.5698331,7.1223187 2.0924963,8.1104447 2.931875,8.9403323 3.7695508,9.6662856 4.0653093,9.9225971 4.3669422,10.172473 4.6725382,10.41731 A 4.1796573,4.1796573 0 0 0 5.7305741,10.38042 C 4.7793613,9.668282 3.8582841,8.909701 3.0336634,8.0525853 2.2052146,7.1915437 1.4744755,5.9457857 1.965542,4.7262957 2.125961,4.3279407 2.4510391,4.0061565 2.7837365,3.7454788 3.299017,3.3417318 3.8779813,3.1676986 4.5166892,3.0777561 5.2964383,2.9679396 6.0972817,3.0185859 6.850054,3.2573788 7.1755352,3.3606273 7.5248533,3.4902027 7.8036638,3.6911007 7.9734893,3.81347 8.0905974,4.0322981 8.2847664,4.1159016 8.4536654,4.1886211 8.6471417,4.1251922 8.772096,3.9979787 9.0242687,3.7412952 8.794765,3.4123838 8.5733663,3.2308047 8.2834988,2.9930608 7.9421867,2.8947984 7.5997535,2.7618042 7.4507899,2.7039517 7.2980706,2.6330896 7.1425002,2.5743952 Z M 5.907241,3.7618784 C 5.857048,3.7431574 5.8057187,3.7303524 5.7554703,3.7238824 c -0.03533,-0.00455 -0.068881,-0.00677 -0.1024927,-0.00536 -0.033612,0.00141 -0.067385,0.00611 -0.1021321,0.014802 -0.05412,0.01357 -0.1043476,0.033342 -0.1520234,0.062471 C 5.0972876,3.980069 5.2013041,4.296907 5.3100261,4.5682277 5.3729161,4.7251679 5.4973256,4.9396491 5.6842076,4.965569 6.0181934,5.0119015 6.3710319,4.583301 6.3432331,4.2613705 6.3234081,4.031778 6.124745,3.8430035 5.907241,3.7618784 Z m 1.2953623,1.4197928 c -0.028209,-0.011149 -0.057435,-0.018555 -0.087502,-0.021129 -0.010969,-9.375e-4 -0.02173,-0.00157 -0.032491,-0.0016 -0.075331,-2.275e-4 -0.1466056,0.021547 -0.2138587,0.057825 -0.05578,0.0301 -0.1033022,0.069027 -0.146048,0.1156205 -0.1709162,0.1862691 -0.1200617,0.4425072 0.012462,0.6367202 0.07999,0.1172195 0.1930218,0.2099375 0.2607813,0.3357 0.1079258,0.2003166 0.198007,0.4915433 0.4687755,0.5155669 0.2737658,0.0243 0.5170718,-0.2003074 0.494944,-0.4777289 C 7.9403464,6.100409 7.7682551,5.9062546 7.642142,5.7103396 7.5657921,5.5917381 7.5054154,5.4602358 7.4166695,5.3498593 7.3618824,5.2817222 7.2872302,5.2151169 7.2026033,5.1816712 Z M 5.456411,5.3133819 c -0.032404,-0.01216 -0.066914,-0.01968 -0.1029824,-0.021646 -0.010096,-5.5e-4 -0.020318,-8.875e-4 -0.030578,-8.912e-4 -0.01026,-3.8e-6 -0.020785,7.47e-5 -0.031146,6.397e-4 C 4.9808949,5.3084604 4.62,5.5689562 4.50175,5.8439609 4.40218,6.0755119 4.6051805,6.3888805 4.85022,6.4080764 5.1512385,6.4316564 5.575557,6.1971939 5.705981,5.927018 5.8105505,5.7104186 5.6832367,5.3985021 5.456411,5.3133819 Z m -2.2273285,0.075622 c -0.02628,-0.00913 -0.05516,-0.015281 -0.087347,-0.018025 -0.010034,-8.5e-4 -0.020361,-0.00168 -0.030294,-0.00166 -0.069536,1.407e-4 -0.1364296,0.02165 -0.1966625,0.057237 -0.3723742,0.2200187 -0.2513079,0.6646914 -0.046227,0.9558199 0.407874,0.579065 0.9412298,1.0094647 1.5713716,1.3223272 0.2431857,0.1206932 0.543921,0.2655068 0.8223555,0.2453088 0.08433,-0.006 0.1670758,-0.020623 0.2376515,-0.070333 C 5.7131743,7.7293563 5.6467937,7.4459949 5.4665327,7.3052864 5.2149588,7.1089074 4.8880345,7.0521969 4.591014,6.9579862 4.2850305,6.8609267 3.9944421,6.7111829 3.7860821,6.4614232 3.6863126,6.3418369 3.6000741,6.2109887 3.5510561,6.0621386 3.4785475,5.8419979 3.4831254,5.4772304 3.2290825,5.3890039 Z m 4.3832071,2.9810143 c -0.024204,-0.0084 -0.049462,-0.014134 -0.076262,-0.017396 -0.032745,-0.004 -0.065357,-0.00646 -0.097573,-0.00571 -0.032215,7.5e-4 -0.063947,0.00428 -0.09612,0.012678 -0.3493553,0.09091 -0.3628245,0.4949076 -0.1574075,0.7308825 0.1400769,0.1609659 0.3114625,0.296039 0.4737404,0.4364367 A 4.1796573,4.1796573 0 0 0 8.1827792,9.030394 C 8.1564649,8.9987652 8.1304902,8.9667099 8.1052731,8.9341768 7.9659133,8.7543505 7.8462637,8.4511754 7.6122896,8.3700182 Z"
       transform="matrix(1.187064,-0.44019153,0.44019153,1.187064,-3.4659537,0.0922303)" /></g></svg>
