<?xml version="1.0" encoding="UTF-8" standalone="no"?>
<!-- Created with Inkscape (http://www.inkscape.org/) -->

<svg
   width="40"
   height="40"
   viewBox="0 0 10.583333 10.583333"
   version="1.1"
   id="svg5"
   xml:space="preserve"
   inkscape:export-filename="../../../../../../../../home/damsak/bitmap6.svg"
   inkscape:export-xdpi="96"
   inkscape:export-ydpi="96"
   inkscape:version="1.2.2 (b0a8486541, 2022-12-01)"
   sodipodi:docname="bitmap6.svg"
   xmlns:inkscape="http://www.inkscape.org/namespaces/inkscape"
   xmlns:sodipodi="http://sodipodi.sourceforge.net/DTD/sodipodi-0.dtd"
   xmlns:xlink="http://www.w3.org/1999/xlink"
   xmlns="http://www.w3.org/2000/svg"
   xmlns:svg="http://www.w3.org/2000/svg"><sodipodi:namedview
     id="namedview7"
     pagecolor="#ffffff"
     bordercolor="#999999"
     borderopacity="1"
     inkscape:showpageshadow="0"
     inkscape:pageopacity="0"
     inkscape:pagecheckerboard="0"
     inkscape:deskcolor="#d1d1d1"
     inkscape:document-units="mm"
     showgrid="false"
     inkscape:zoom="6.558855"
     inkscape:cx="13.340743"
     inkscape:cy="26.833952"
     inkscape:current-layer="layer1"
     inkscape:lockguides="false" /><defs
     id="defs2"><inkscape:path-effect
       effect="powerstroke"
       id="path-effect1834"
       is_visible="true"
       lpeversion="1"
       offset_points="0.12992463,0.016844002"
       not_jump="true"
       sort_points="true"
       interpolator_type="CentripetalCatmullRom"
       interpolator_beta="0.75"
       start_linecap_type="round"
       linejoin_type="spiro"
       miter_limit="4"
       scale_width="1"
       end_linecap_type="round" /><inkscape:path-effect
       effect="simplify"
       id="path-effect1832"
       is_visible="true"
       lpeversion="1"
       steps="1"
       threshold="0.6"
       smooth_angles="0"
       helper_size="0"
       simplify_individual_paths="false"
       simplify_just_coalesce="false"
       step="1" /><inkscape:path-effect
       effect="powerstroke"
       id="path-effect1827"
       is_visible="true"
       lpeversion="1"
       offset_points="0.12997895,0.016844002"
       not_jump="true"
       sort_points="true"
       interpolator_type="CentripetalCatmullRom"
       interpolator_beta="0.75"
       start_linecap_type="round"
       linejoin_type="spiro"
       miter_limit="4"
       scale_width="1"
       end_linecap_type="round" /><inkscape:path-effect
       effect="simplify"
       id="path-effect1825"
       is_visible="true"
       lpeversion="1"
       steps="1"
       threshold="0.6"
       smooth_angles="0"
       helper_size="0"
       simplify_individual_paths="false"
       simplify_just_coalesce="false"
       step="1" /><inkscape:path-effect
       effect="powerstroke"
       id="path-effect1820"
       is_visible="true"
       lpeversion="1"
       offset_points="0.12608107,0.0080043357"
       not_jump="true"
       sort_points="true"
       interpolator_type="CentripetalCatmullRom"
       interpolator_beta="0.75"
       start_linecap_type="round"
       linejoin_type="spiro"
       miter_limit="4"
       scale_width="1"
       end_linecap_type="round" /><inkscape:path-effect
       effect="simplify"
       id="path-effect1818"
       is_visible="true"
       lpeversion="1"
       steps="1"
       threshold="0.6"
       smooth_angles="0"
       helper_size="0"
       simplify_individual_paths="false"
       simplify_just_coalesce="false"
       step="1" /><inkscape:path-effect
       effect="powerstroke"
       id="path-effect1813"
       is_visible="true"
       lpeversion="1"
       offset_points="0.69497551,0.021334289"
       not_jump="true"
       sort_points="true"
       interpolator_type="CentripetalCatmullRom"
       interpolator_beta="0.75"
       start_linecap_type="round"
       linejoin_type="spiro"
       miter_limit="4"
       scale_width="1"
       end_linecap_type="round" /><inkscape:path-effect
       effect="simplify"
       id="path-effect1811"
       is_visible="true"
       lpeversion="1"
       steps="1"
       threshold="0.0028332064"
       smooth_angles="0"
       helper_size="0"
       simplify_individual_paths="false"
       simplify_just_coalesce="false"
       step="1" /><linearGradient
       inkscape:collect="always"
       id="linearGradient970"><stop
         style="stop-color:#000000;stop-opacity:1;"
         offset="0"
         id="stop966" /><stop
         style="stop-color:#000000;stop-opacity:1;"
         offset="1"
         id="stop968" /></linearGradient><linearGradient
       inkscape:collect="always"
       xlink:href="#linearGradient970"
       id="linearGradient2297"
       gradientUnits="userSpaceOnUse"
       x1="5.2916665"
       y1="0"
       x2="6.6748266"
       y2="10.583333"
       gradientTransform="matrix(0.94676553,0,0,0.94676553,0.56341625,0.34085907)" /><filter
       style="color-interpolation-filters:sRGB"
       inkscape:label="Drop Shadow"
       id="filter1228-7-7-3"
       x="-0.12346464"
       y="-0.11814239"
       width="1.2469293"
       height="1.2978173"><feFlood
         flood-opacity="0.658824"
         flood-color="rgb(0,0,0)"
         result="flood"
         id="feFlood1218-5-8-2" /><feComposite
         in="flood"
         in2="SourceGraphic"
         operator="in"
         result="composite1"
         id="feComposite1220-92-4-0" /><feGaussianBlur
         in="composite1"
         stdDeviation="0.4"
         result="blur"
         id="feGaussianBlur1222-28-5-6" /><feOffset
         dx="2.77556e-17"
         dy="0.5"
         result="offset"
         id="feOffset1224-9-0-1" /><feComposite
         in="SourceGraphic"
         in2="offset"
         operator="over"
         result="composite2"
         id="feComposite1226-7-3-5" /></filter><filter
       style="color-interpolation-filters:sRGB"
       inkscape:label="Drop Shadow"
       id="filter1228-7-7-3-4"
       x="-0.18158284"
       y="-0.22674611"
       width="1.3631657"
       height="1.5715891"><feFlood
         flood-opacity="0.658824"
         flood-color="rgb(0,0,0)"
         result="flood"
         id="feFlood1218-5-8-2-7" /><feComposite
         in="flood"
         in2="SourceGraphic"
         operator="in"
         result="composite1"
         id="feComposite1220-92-4-0-6" /><feGaussianBlur
         in="composite1"
         stdDeviation="0.4"
         result="blur"
         id="feGaussianBlur1222-28-5-6-5" /><feOffset
         dx="2.77556e-17"
         dy="0.5"
         result="offset"
         id="feOffset1224-9-0-1-6" /><feComposite
         in="SourceGraphic"
         in2="offset"
         operator="over"
         result="composite2"
         id="feComposite1226-7-3-5-9" /></filter><filter
       style="color-interpolation-filters:sRGB"
       inkscape:label="Drop Shadow"
       id="filter1228-7-7-3-7"
       x="-0.12346464"
       y="-0.11814239"
       width="1.2469293"
       height="1.2978173"><feFlood
         flood-opacity="0.658824"
         flood-color="rgb(0,0,0)"
         result="flood"
         id="feFlood1218-5-8-2-5" /><feComposite
         in="flood"
         in2="SourceGraphic"
         operator="in"
         result="composite1"
         id="feComposite1220-92-4-0-3" /><feGaussianBlur
         in="composite1"
         stdDeviation="0.4"
         result="blur"
         id="feGaussianBlur1222-28-5-6-56" /><feOffset
         dx="2.77556e-17"
         dy="0.5"
         result="offset"
         id="feOffset1224-9-0-1-2" /><feComposite
         in="SourceGraphic"
         in2="offset"
         operator="over"
         result="composite2"
         id="feComposite1226-7-3-5-91" /></filter><filter
       style="color-interpolation-filters:sRGB"
       inkscape:label="Drop Shadow"
       id="filter1228-7-7-3-4-2"
       x="-0.18158284"
       y="-0.22674611"
       width="1.3631657"
       height="1.5715891"><feFlood
         flood-opacity="0.658824"
         flood-color="rgb(0,0,0)"
         result="flood"
         id="feFlood1218-5-8-2-7-7" /><feComposite
         in="flood"
         in2="SourceGraphic"
         operator="in"
         result="composite1"
         id="feComposite1220-92-4-0-6-0" /><feGaussianBlur
         in="composite1"
         stdDeviation="0.4"
         result="blur"
         id="feGaussianBlur1222-28-5-6-5-9" /><feOffset
         dx="2.77556e-17"
         dy="0.5"
         result="offset"
         id="feOffset1224-9-0-1-6-3" /><feComposite
         in="SourceGraphic"
         in2="offset"
         operator="over"
         result="composite2"
         id="feComposite1226-7-3-5-9-6" /></filter><filter
       style="color-interpolation-filters:sRGB"
       inkscape:label="Drop Shadow"
       id="filter1228-7-7-3-3"
       x="-0.12346464"
       y="-0.11814239"
       width="1.2469293"
       height="1.2978173"><feFlood
         flood-opacity="0.658824"
         flood-color="rgb(0,0,0)"
         result="flood"
         id="feFlood1218-5-8-2-6" /><feComposite
         in="flood"
         in2="SourceGraphic"
         operator="in"
         result="composite1"
         id="feComposite1220-92-4-0-7" /><feGaussianBlur
         in="composite1"
         stdDeviation="0.4"
         result="blur"
         id="feGaussianBlur1222-28-5-6-53" /><feOffset
         dx="2.77556e-17"
         dy="0.5"
         result="offset"
         id="feOffset1224-9-0-1-5" /><feComposite
         in="SourceGraphic"
         in2="offset"
         operator="over"
         result="composite2"
         id="feComposite1226-7-3-5-6" /></filter></defs><g
     inkscape:label="Layer 1"
     inkscape:groupmode="layer"
     id="layer1"
     style="display:inline"><path
       id="path954-36-6-5-2"
       style="display:inline;fill:#000000;fill-opacity:1;stroke:none;stroke-width:0.244066;stroke-dasharray:none;stroke-opacity:1;paint-order:markers fill stroke;filter:url(#filter1228-7-7-3-3)"
       d="M 7.1092049,2.5620486 C 7.0980928,2.557996 7.0869396,2.5539927 7.0757677,2.5500846 6.9685184,2.5125669 6.8598937,2.4823357 6.7502272,2.4676755 6.537244,2.4392057 6.329607,2.3805125 6.1143926,2.3568325 5.8473344,2.3274625 5.5727577,2.310161 5.2970617,2.3092854 4.8375679,2.3078259 4.3747906,2.3513561 3.9378347,2.4551991 2.7987547,2.725897 1.5684027,3.5503384 1.2000692,4.711474 c -0.123649,0.3898282 -0.108445,0.8104582 -0.045775,1.2093494 0.06583,0.419084 0.2179578,0.8279338 0.4155394,1.2014953 0.522662,0.988124 1.3620435,1.818015 2.1997177,2.5439669 0.2957579,0.2563109 0.597392,0.5061874 0.9029874,0.7510244 A 4.1796573,4.1796573 0 0 0 5.7305741,10.38042 C 4.7793633,9.6682828 3.8582825,8.9096992 3.0336634,8.0525853 2.2052162,7.1915455 1.4744765,5.9457833 1.965542,4.7262957 2.1259606,4.3279415 2.4510397,4.0061559 2.7837365,3.7454788 3.299016,3.3417326 3.8779825,3.1676984 4.5166892,3.0777561 5.2964367,2.9679398 6.0972831,3.0185863 6.850054,3.2573788 7.1755344,3.3606271 7.5248539,3.4902031 7.8036638,3.6911007 7.9734891,3.8134696 8.0905978,4.0322983 8.2847664,4.1159016 8.453665,4.1886209 8.6471421,4.125192 8.772096,3.9979787 9.0242683,3.7412958 8.7947646,3.4123834 8.5733663,3.2308047 8.2834994,2.9930612 7.9421861,2.894798 7.5997535,2.7618042 7.4507903,2.7039517 7.2980702,2.6330896 7.1425002,2.5743952 7.131388,2.5702028 7.120317,2.566101 7.1092049,2.5620486 Z"
       transform="matrix(1.2357038,-0.45822832,0.45822832,1.2357038,-3.4996123,0.12562032)" /><path
       id="path234-6"
       style="display:inline;fill:url(#linearGradient2297);fill-opacity:1;stroke-width:1.01682;stroke-linecap:round;stroke-linejoin:round;paint-order:stroke markers fill"
       d="m 6.6902643,1.2249335 c -0.013286,-2.35e-5 -0.026541,3.384e-4 -0.039816,4.74e-4 -0.1055468,0.00107 -0.2101604,0.0041 -0.3123669,0.00901 C 5.3925479,1.2797638 4.4715786,1.5567557 3.6410122,2.0051402 3.1307586,2.2805916 2.6778347,2.5950215 2.3100156,3.0171335 c -0.030652,0.035176 -0.060603,0.07089 -0.090061,0.107598 -0.029455,0.03671 -0.058515,0.07449 -0.086743,0.1128126 -0.028227,0.03832 -0.055981,0.077541 -0.08295,0.1175519 -0.026969,0.040011 -0.053008,0.080984 -0.078684,0.1227665 -0.2652683,0.4316201 -0.4967011,0.9287819 -0.5109737,1.4433347 -0.010912,0.3937998 0.065089,0.7572089 0.2047688,1.0911519 0.017459,0.041743 0.035565,0.083379 0.054985,0.1241884 0.019419,0.040809 0.039855,0.080994 0.061146,0.1208703 0.021291,0.039876 0.043759,0.079082 0.066834,0.1180259 0.023074,0.038945 0.046329,0.077645 0.071101,0.1156569 0.074312,0.114035 0.1561075,0.2242535 0.2441108,0.3299052 0.029335,0.035217 0.059379,0.06952 0.090061,0.1038066 0.4908883,0.5485852 1.1486674,0.9780672 1.793622,1.2892845 0.080202,0.038703 0.1605493,0.077167 0.2412669,0.1147088 h 4.739e-4 c 0.025205,0.011727 0.050587,0.022991 0.075841,0.034602 0.1363585,0.062697 0.2732578,0.1238455 0.4109592,0.1834387 l 4.741e-4,4.741e-4 c 0.081475,0.035257 0.1631489,0.070053 0.2450588,0.1042806 l 4.74e-4,4.74e-4 c 0.081912,0.034225 0.1646336,0.067723 0.2469547,0.1009623 l 4.742e-4,4.74e-4 c 0.082323,0.033237 0.1647228,0.065824 0.2474287,0.098118 3.38e-4,1.322e-4 6.195e-4,3.42e-4 9.48e-4,4.741e-4 0.1654722,0.064602 0.3318012,0.1275749 0.4986497,0.1886526 3.405e-4,1.249e-4 6.171e-4,3.492e-4 9.48e-4,4.739e-4 0.3254984,0.1191392 0.6534359,0.2314607 0.9830794,0.3389112 0.00143,4.643e-4 0.00284,9.579e-4 0.00427,0.00142 l 1.048966,0.3190037 a 5.0099675,5.0099675 0 0 0 0.02844,-0.017064 5.0099675,5.0099675 0 0 0 0.1227664,-0.074893 5.0099675,5.0099675 0 0 0 0.2569089,-0.1696926 5.0099675,5.0099675 0 0 0 0.078684,-0.055458 5.0099675,5.0099675 0 0 0 0.1403044,-0.108546 5.0099675,5.0099675 0 0 0 0.089113,-0.071101 A 5.0099675,5.0099675 0 0 0 8.8995924,9.091936 5.0099675,5.0099675 0 0 0 8.9782764,9.020362 5.0099675,5.0099675 0 0 0 9.116685,8.8885895 5.0099675,5.0099675 0 0 0 9.166455,8.8364485 5.0099675,5.0099675 0 0 0 9.3058114,8.6890341 5.0099675,5.0099675 0 0 0 9.6020625,8.3235788 a 5.0099675,5.0099675 0 0 0 0.04029,-0.05451 5.0099675,5.0099675 0 0 0 0.1113904,-0.1625824 5.0099675,5.0099675 0 0 0 0.045977,-0.071101 5.0099675,5.0099675 0 0 0 0.060198,-0.091957 c -0.00101,-3.607e-4 -0.00231,-5.94e-4 -0.00332,-9.48e-4 a 5.0099675,5.0099675 0 0 0 0.5692751,-1.3537486 5.0099675,5.0099675 0 0 0 0.009,-0.038394 5.0099675,5.0099675 0 0 0 0.05736,-0.2602268 5.0099675,5.0099675 0 0 0 0.0071,-0.036972 5.0099675,5.0099675 0 0 0 0.0384,-0.2460069 5.0099675,5.0099675 0 0 0 0.009,-0.064465 5.0099675,5.0099675 0 0 0 0.0237,-0.2554868 5.0099675,5.0099675 0 0 0 0.0029,-0.03555 5.0099675,5.0099675 0 0 0 0.01,-0.300517 5.0099675,5.0099675 0 0 0 -0.0081,-0.2611749 5.0099675,5.0099675 0 0 0 -0.0024,-0.041712 5.0099675,5.0099675 0 0 0 -0.0218,-0.2521644 5.0099675,5.0099675 0 0 0 -0.04219,-0.301465 l -0.0019,0.00285 a 5.0099675,5.0099675 0 0 0 -0.04977,-0.2493247 l 0.0034,0.0038 a 5.0099675,5.0099675 0 0 0 -0.03378,-0.1350981 5.0099675,5.0099675 0 0 0 -0.01706,-0.069204 5.0099675,5.0099675 0 0 0 -0.0085,-0.03081 5.0099675,5.0099675 0 0 0 -0.06826,-0.2232549 5.0099675,5.0099675 0 0 0 -0.03034,-0.09006 5.0099675,5.0099675 0 0 0 -0.0948,-0.2531169 5.0099675,5.0099675 0 0 0 -0.0014,-0.00284 5.0099675,5.0099675 0 0 0 -0.01802,-0.042186 A 5.0099675,5.0099675 0 0 0 10.089753,3.187776 5.0099675,5.0099675 0 0 0 10.052773,3.111461 5.0099675,5.0099675 0 0 0 9.9257995,2.8716151 5.0099675,5.0099675 0 0 0 9.8869312,2.8066769 5.0099675,5.0099675 0 0 0 9.7693789,2.6166023 5.0099675,5.0099675 0 0 0 9.7433088,2.5748901 c -8.168e-4,-6.351e-4 -0.00156,-0.00126 -0.00237,-0.00189 A 5.0099675,5.0099675 0 0 0 9.1498587,1.8444536 c -1.49e-5,-4.954e-4 1.36e-5,-9.266e-4 0,-0.00142 A 5.0099675,5.0099675 0 0 0 9.1043546,1.7989494 5.0099675,5.0099675 0 0 0 8.9811142,1.680449 5.0099675,5.0099675 0 0 0 8.8891578,1.5970248 5.0099675,5.0099675 0 0 0 8.7640214,1.4908485 5.0099675,5.0099675 0 0 0 8.7142514,1.4491363 5.0099675,5.0099675 0 0 0 8.6957655,1.4330202 c -3.149e-4,3.382e-4 -6.421e-4,6.173e-4 -9.48e-4,9.48e-4 -0.099459,0.1063366 -0.2359313,0.1750677 -0.3863113,0.1673226 -0.00166,-8.49e-5 -0.00356,-3.737e-4 -0.00521,-4.74e-4 -0.015816,-9.631e-4 -0.031335,-0.00243 -0.046926,-0.00475 -0.030855,-0.00459 -0.061357,-0.01142 -0.091482,-0.020382 -0.015047,-0.00448 -0.030133,-0.00935 -0.04503,-0.014695 -0.013934,-0.005 -0.027888,-0.010486 -0.041712,-0.016116 -0.00101,-4.116e-4 -0.00183,-0.00149 -0.00285,-0.00189 -0.013828,-0.00567 -0.027499,-0.01136 -0.041238,-0.017537 -9.866e-4,-4.462e-4 -0.00233,-9.772e-4 -0.00332,-0.00142 -0.028668,-0.012968 -0.056904,-0.02693 -0.085321,-0.041238 -7.796e-4,-3.93e-4 -0.0016,-5.612e-4 -0.00237,-9.48e-4 -0.015903,-0.00801 -0.032006,-0.016015 -0.047874,-0.024174 -0.013237,-0.00682 -0.026109,-0.014071 -0.039342,-0.020856 -0.028799,-0.014755 -0.057833,-0.028884 -0.086742,-0.042661 -3.324e-4,-1.586e-4 -6.25e-4,-3.158e-4 -9.48e-4,-4.74e-4 -0.01429,-0.0068 -0.028785,-0.013563 -0.043134,-0.019908 -3.332e-4,-1.475e-4 -6.246e-4,-3.27e-4 -9.481e-4,-4.74e-4 -0.014546,-0.00642 -0.028977,-0.012683 -0.043609,-0.018485 h -4.739e-4 c -0.0039,-0.00155 -0.00747,-0.00276 -0.011372,-0.00427 -0.025741,-0.00986 -0.052087,-0.018858 -0.07821,-0.02607 -0.023673,-0.00653 -0.047093,-0.012239 -0.071101,-0.018012 -0.00115,-2.771e-4 -0.00263,-6.794e-4 -0.0038,-9.48e-4 -0.012608,-0.00301 -0.025228,-0.0062 -0.03792,-0.00901 -0.00339,-7.508e-4 -0.00702,-0.00115 -0.010427,-0.00189 -0.034697,-0.00752 -0.069516,-0.014746 -0.1047548,-0.020856 -0.034479,-0.00598 -0.068913,-0.010908 -0.1038066,-0.015642 -0.00424,-5.787e-4 -0.00854,-0.00133 -0.012799,-0.00189 -0.00405,-5.325e-4 -0.00827,-0.00138 -0.012324,-0.00189 -0.035029,-0.00446 -0.070385,-0.00803 -0.105703,-0.011376 h -4.739e-4 c -0.03957,-0.00374 -0.079183,-0.007 -0.1189745,-0.00948 -0.023971,-0.00149 -0.04804,-0.00224 -0.072049,-0.00331 -0.034059,-0.00155 -0.067849,-0.00253 -0.1019104,-0.00331 C 6.818409,1.2264902 6.802404,1.2261218 6.786477,1.2259068 6.767694,1.225647 6.74882,1.2254978 6.730071,1.2254327 6.716741,1.2253912 6.70354,1.2249822 6.690255,1.2249588 Z m -4.3375885,7.959435 a 5.0099675,5.0099675 0 0 0 0.1478884,0.1213444 c -0.00121,-0.0018 -0.00208,-0.00247 -0.00332,-0.00427 -0.0069,-0.011302 -0.014209,-0.023612 -0.021804,-0.03555 -0.042288,-0.02542 -0.082493,-0.053342 -0.1227664,-0.081529 z" /><path
       id="path954-36-6-5"
       style="display:inline;fill:#ffffff;fill-opacity:1;stroke:none;stroke-width:0.244066;stroke-dasharray:none;stroke-opacity:1;paint-order:markers fill stroke;filter:url(#filter1228-7-7-3)"
       d="M 7.1092049,2.5620486 C 7.0980928,2.557996 7.0869396,2.5539927 7.0757677,2.5500846 6.9685184,2.5125669 6.8598937,2.4823357 6.7502272,2.4676755 6.537244,2.4392057 6.329607,2.3805125 6.1143926,2.3568325 5.8473344,2.3274625 5.5727577,2.310161 5.2970617,2.3092854 4.8375679,2.3078259 4.3747906,2.3513561 3.9378347,2.4551991 2.7987547,2.725897 1.5684027,3.5503384 1.2000692,4.711474 c -0.123649,0.3898282 -0.108445,0.8104582 -0.045775,1.2093494 0.06583,0.419084 0.2179578,0.8279338 0.4155394,1.2014953 0.522662,0.988124 1.3620435,1.818015 2.1997177,2.5439669 0.2957579,0.2563109 0.597392,0.5061874 0.9029874,0.7510244 A 4.1796573,4.1796573 0 0 0 5.7305741,10.38042 C 4.7793633,9.6682828 3.8582825,8.9096992 3.0336634,8.0525853 2.2052162,7.1915455 1.4744765,5.9457833 1.965542,4.7262957 2.1259606,4.3279415 2.4510397,4.0061559 2.7837365,3.7454788 3.299016,3.3417326 3.8779825,3.1676984 4.5166892,3.0777561 5.2964367,2.9679398 6.0972831,3.0185863 6.850054,3.2573788 7.1755344,3.3606271 7.5248539,3.4902031 7.8036638,3.6911007 7.9734891,3.8134696 8.0905978,4.0322983 8.2847664,4.1159016 8.453665,4.1886209 8.6471421,4.125192 8.772096,3.9979787 9.0242683,3.7412958 8.7947646,3.4123834 8.5733663,3.2308047 8.2834994,2.9930612 7.9421861,2.894798 7.5997535,2.7618042 7.4507903,2.7039517 7.2980702,2.6330896 7.1425002,2.5743952 7.131388,2.5702028 7.120317,2.566101 7.1092049,2.5620486 Z"
       transform="matrix(1.0888334,-0.40376528,0.40376528,1.0888334,-2.3034562,0.70944562)" /><path
       id="path954-36-6-5-3"
       style="display:inline;fill:#ffffff;fill-opacity:1;stroke:none;stroke-width:0.007281;filter:url(#filter1228-7-7-3-4)"
       d="M 5.9071555,3.761954 C 5.8569626,3.743233 5.8056331,3.7304276 5.7553848,3.7239576 c -0.03533,-0.00455 -0.068881,-0.00677 -0.1024927,-0.00536 -0.033612,0.00141 -0.067385,0.00611 -0.1021321,0.014802 -0.05412,0.01357 -0.1043476,0.033342 -0.1520234,0.062471 C 5.0972027,3.9801469 5.2012178,4.2969857 5.3099401,4.568306 5.3728301,4.7252458 5.49724,4.9397274 5.6841216,4.9656473 6.0181068,5.0119792 6.3709462,4.583376 6.3431476,4.2614461 6.3233221,4.0318568 6.1246591,3.8430789 5.9071555,3.761954 Z m 1.2743136,1.4119874 c -0.02153,-0.00691 -0.043903,-0.011393 -0.066453,-0.013324 -0.010969,-9.375e-4 -0.021732,-0.00157 -0.032491,-0.0016 -0.075331,-2.275e-4 -0.1466056,0.021547 -0.2138587,0.057825 -0.05578,0.0301 -0.1033022,0.069027 -0.146048,0.1156206 C 6.5517018,5.5187311 6.6025569,5.77497 6.73508,5.9691826 6.81507,6.0864019 6.928102,6.1791203 6.9958613,6.3048826 7.1037869,6.5051988 7.1938689,6.796426 7.4646368,6.8204495 7.738402,6.8447495 7.9817086,6.6201415 7.9595808,6.3427206 7.9402607,6.1004832 7.7681693,5.9063298 7.6420565,5.7104152 7.5657067,5.5918139 7.5053299,5.4603112 7.4165841,5.3499349 7.3617971,5.281798 7.2871445,5.2151924 7.2025178,5.1817468 c -0.00705,-0.00279 -0.013872,-0.0055 -0.021049,-0.00781 z M 5.4440789,5.3089162 c -0.028807,-0.00961 -0.059176,-0.015384 -0.090736,-0.017104 -0.010096,-5.5e-4 -0.020318,-8.874e-4 -0.030578,-8.911e-4 -0.01026,-3.8e-6 -0.020785,7.47e-5 -0.031146,6.397e-4 C 4.980811,5.3085363 4.6199147,5.5690327 4.5016649,5.8440368 4.402095,6.0755874 4.605096,6.3889564 4.8501349,6.4081523 5.1511528,6.4317321 5.5754723,6.1972694 5.705896,5.9270939 5.8104652,5.710495 5.6831506,5.3985775 5.4563255,5.3134575 c -0.00405,-0.00152 -0.00813,-0.00317 -0.012247,-0.00454 z M 3.228997,5.3890792 c -0.02628,-0.00913 -0.05516,-0.015281 -0.087347,-0.018025 -0.010034,-8.5e-4 -0.020361,-0.00168 -0.030294,-0.00166 -0.069536,1.407e-4 -0.1364298,0.021649 -0.1966625,0.057237 -0.3723736,0.2200183 -0.2513081,0.664692 -0.046227,0.9558199 0.4078732,0.5790638 0.941231,1.0094653 1.5713716,1.3223272 0.2431851,0.120693 0.5439216,0.2655068 0.8223555,0.2453088 0.08433,-0.006 0.167076,-0.020623 0.2376515,-0.070333 C 5.713087,7.7294383 5.6467078,7.4460703 5.4664472,7.305362 5.2148737,7.1089834 4.8879485,7.0522723 4.5909285,6.9580618 4.2849457,6.8610025 3.9943562,6.7112581 3.7859966,6.4614988 3.6862273,6.3419129 3.5999886,6.2110639 3.5509706,6.0622142 3.4784622,5.8420739 3.4830395,5.4773055 3.228997,5.3890792 Z"
       transform="matrix(1.1785887,-0.43704869,0.43704869,1.1785887,-2.6208871,0.56178654)" /></g></svg>
