<?xml version="1.0" encoding="UTF-8" standalone="no"?>
<!-- Created with Inkscape (http://www.inkscape.org/) -->

<svg
   width="40"
   height="40"
   viewBox="0 0 10.583333 10.583333"
   version="1.1"
   id="svg5"
   xml:space="preserve"
   inkscape:export-filename="./bitmap2.svg"
   inkscape:export-xdpi="96"
   inkscape:export-ydpi="96"
   xmlns:inkscape="http://www.inkscape.org/namespaces/inkscape"
   xmlns:sodipodi="http://sodipodi.sourceforge.net/DTD/sodipodi-0.dtd"
   xmlns:xlink="http://www.w3.org/1999/xlink"
   xmlns="http://www.w3.org/2000/svg"
   xmlns:svg="http://www.w3.org/2000/svg"><sodipodi:namedview
     id="namedview7"
     pagecolor="#ffffff"
     bordercolor="#999999"
     borderopacity="1"
     inkscape:showpageshadow="0"
     inkscape:pageopacity="0"
     inkscape:pagecheckerboard="0"
     inkscape:deskcolor="#d1d1d1"
     inkscape:document-units="mm"
     showgrid="false" /><defs
     id="defs2"><linearGradient
       inkscape:collect="always"
       id="linearGradient970"><stop
         style="stop-color:#38d9ff;stop-opacity:1;"
         offset="0"
         id="stop966" /><stop
         style="stop-color:#0043e6;stop-opacity:1;"
         offset="1"
         id="stop968" /></linearGradient><linearGradient
       inkscape:collect="always"
       xlink:href="#linearGradient970"
       id="linearGradient972"
       x1="5.2916665"
       y1="0"
       x2="6.6748266"
       y2="10.583333"
       gradientUnits="userSpaceOnUse" /></defs><g
     inkscape:label="Layer 1"
     inkscape:groupmode="layer"
     id="layer1"><path
       id="path234"
       style="fill:url(#linearGradient972);fill-opacity:1;stroke-width:1.074;stroke-linecap:round;stroke-linejoin:round;paint-order:stroke markers fill"
       d="M 5.2916667,0 A 5.2916665,5.2916665 0 0 0 0,5.2916667 5.2916665,5.2916665 0 0 0 5.2916667,10.583333 5.2916665,5.2916665 0 0 1 5.0901286,10.575582 C 4.6788701,10.251513 4.2743036,9.9188842 3.878833,9.5761597 2.9718466,8.7901398 2.0629756,7.8916911 1.4970662,6.8218058 1.283136,6.4173343 1.1182412,5.9743538 1.0469645,5.5205933 0.97910934,5.0886963 0.9626938,4.6331966 1.0965739,4.2111125 1.4953849,2.9538999 2.8274024,2.0614641 4.060734,1.7683675 4.5338452,1.6559322 5.034965,1.6086574 5.5324788,1.6102376 c 0.2985083,9.481e-4 0.5960616,0.019876 0.8852173,0.051676 0.233022,0.025639 0.4577235,0.089064 0.6883301,0.1198893 0.3166419,0.04233 0.6249118,0.2037865 0.9198405,0.3183268 C 8.3966333,2.2441282 8.7662143,2.3506939 9.0800659,2.608109 9.3197835,2.8047123 9.5680777,3.1606273 9.2950399,3.4385493 9.1597465,3.5762891 8.9502976,3.6449271 8.7674235,3.5661906 8.5571886,3.4756696 8.4304021,3.2387649 8.2465251,3.1062703 7.9446453,2.8887497 7.5664422,2.7488398 7.2140299,2.6370483 6.3989721,2.3784974 5.5318361,2.3233253 4.6875692,2.4422282 3.9960136,2.5396127 3.3691136,2.7280278 2.8111979,3.1651815 2.4509726,3.4474282 2.0991563,3.7958166 1.9254639,4.2271322 1.3937657,5.5475248 2.1849864,6.8966938 3.0819824,7.8289795 4.0335639,8.818059 5.1039356,9.6856719 6.2058228,10.500651 A 5.2916665,5.2916665 0 0 0 8.6175618,9.4061442 5.2916665,5.2916665 0 0 1 8.316805,9.6314535 C 8.2747104,9.5926445 8.232999,9.5532753 8.1907145,9.5146647 7.9872673,9.3288692 7.7579848,9.160631 7.5767985,8.9524251 7.354385,8.6969253 7.3685523,8.2596907 7.746814,8.161259 7.78165,8.152165 7.81632,8.1481184 7.8512004,8.1473063 c 0.034882,-8.12e-4 0.069966,0.00187 0.1054199,0.0062 0.3095218,0.037678 0.4499998,0.4150883 0.6164998,0.6299357 0.1020785,0.1316937 0.2130119,0.256174 0.3286621,0.3762044 A 5.2916665,5.2916665 0 0 1 8.6175618,9.4061442 5.2916665,5.2916665 0 0 0 10.583333,5.2916667 5.2916665,5.2916665 0 0 1 10.464478,6.3949585 C 10.348789,6.1809027 10.235765,5.9660391 10.12548,5.7500366 9.9906112,5.4858167 9.8840708,5.2053481 9.7394572,4.9464681 9.6166243,4.7267733 9.4388487,4.5127843 9.3880575,4.2612386 9.3330836,3.9889952 9.5589884,3.7154773 9.8335083,3.7015828 c 0.00915,-4.632e-4 0.018538,-0.00111 0.027905,-0.00103 0.00937,7.3e-5 0.018573,8.191e-4 0.027905,0.00155 0.2276567,0.017819 0.3693407,0.2251611 0.4408007,0.4201294 0.0913,0.2494766 0.146302,0.5117831 0.235128,0.7627441 8.01e-4,0.00227 0.0018,0.00446 0.0026,0.00672 A 5.2916665,5.2916665 0 0 0 5.2916667,0 Z m 5.2916663,5.2916667 a 5.2916665,5.2916665 0 0 0 -0.0155,-0.3973918 5.2916665,5.2916665 0 0 1 0.0155,0.3973918 z M 6.2058228,10.500651 a 5.2916665,5.2916665 0 0 1 -0.2976563,0.04444 5.2916665,5.2916665 0 0 0 0.2976563,-0.04444 z M 5.917985,3.1362427 c 0.036393,-0.00153 0.072851,7.579e-4 0.1111044,0.00568 0.2901656,0.03737 0.6097182,0.2759247 0.6361368,0.581881 C 6.6953253,4.0723712 6.3131955,4.536711 5.9515747,4.4865479 5.7492297,4.4584834 5.6145247,4.226009 5.5464315,4.0560832 5.4287142,3.7623131 5.3160657,3.4194792 5.6425496,3.2199585 c 0.051621,-0.031539 0.10625,-0.053003 0.1648479,-0.067696 0.037621,-0.00942 0.074194,-0.014493 0.1105875,-0.01602 z m 1.5477092,1.5595947 c 0.011652,3.52e-5 0.023264,5.352e-4 0.03514,0.00155 0.1302186,0.011149 0.2475013,0.1067889 0.3265951,0.2051554 C 7.9235183,5.022052 7.9891918,5.1642851 8.0718588,5.2926999 8.2084068,5.5048255 8.3945886,5.715134 8.415507,5.9774129 8.4394656,6.2777888 8.1760401,6.5210046 7.8796224,6.494694 7.58645,6.4686825 7.4890156,6.1534797 7.3721598,5.9365885 7.2987937,5.8004203 7.1760981,5.6997049 7.0894897,5.5727865 6.9460004,5.3625039 6.8909957,5.0851042 7.0760539,4.8834229 c 0.046283,-0.050448 0.097735,-0.092467 0.1581299,-0.125057 0.072817,-0.03928 0.1499466,-0.062775 0.2315104,-0.062528 z m -1.9053101,0.142627 c 0.011108,4e-6 0.022142,4.38e-4 0.033073,0.00103 C 5.9058813,4.8565234 6.1047417,5.2592829 5.975346,5.5273077 5.8341302,5.8198418 5.3747127,6.0737406 5.0487874,6.0482096 4.7834728,6.0274255 4.5637412,5.6881041 4.6715495,5.4373942 4.7995836,5.1396351 5.1902678,4.8578785 5.5267944,4.8394979 c 0.011218,-6.118e-4 0.022481,-0.00104 0.03359,-0.00103 z M 3.166215,4.9237305 c 0.010755,-2.17e-5 0.021692,6.299e-4 0.032556,0.00155 0.3717349,0.031688 0.3567541,0.4852618 0.4433837,0.7482747 0.053074,0.1611663 0.1462235,0.3030505 0.2542481,0.4325317 0.2256,0.2704252 0.5404803,0.4323446 0.8717814,0.5374349 0.3215967,0.1020062 0.6753565,0.163577 0.947746,0.3762048 C 5.9111063,7.1720774 5.9829918,7.4786297 5.7521037,7.641394 5.6756884,7.6952169 5.5860624,7.7113787 5.494755,7.7178752 5.1932824,7.7397443 4.8676775,7.5829378 4.6043701,7.4522583 3.9220894,7.1135091 3.3448041,6.6472822 2.903182,6.0203044 2.6811322,5.7050874 2.5501232,5.2239656 2.9533081,4.9857422 3.0185249,4.9472115 3.0909258,4.9238828 3.166215,4.9237305 Z m 2.7155965,5.6239465 a 5.2916665,5.2916665 0 0 1 -0.2723348,0.0248 5.2916665,5.2916665 0 0 0 0.2723348,-0.0248 z" /></g></svg>
