<?xml version="1.0" encoding="UTF-8" standalone="no"?>
<!-- Created with Inkscape (http://www.inkscape.org/) -->

<svg
   width="40"
   height="40"
   viewBox="0 0 10.583333 10.583333"
   version="1.1"
   id="svg5"
   xml:space="preserve"
   xmlns:inkscape="http://www.inkscape.org/namespaces/inkscape"
   xmlns:sodipodi="http://sodipodi.sourceforge.net/DTD/sodipodi-0.dtd"
   xmlns:xlink="http://www.w3.org/1999/xlink"
   xmlns="http://www.w3.org/2000/svg"
   xmlns:svg="http://www.w3.org/2000/svg"><sodipodi:namedview
     id="namedview7"
     pagecolor="#ffffff"
     bordercolor="#999999"
     borderopacity="1"
     inkscape:showpageshadow="0"
     inkscape:pageopacity="0"
     inkscape:pagecheckerboard="0"
     inkscape:deskcolor="#d1d1d1"
     inkscape:document-units="mm"
     showgrid="false" /><defs
     id="defs2"><linearGradient
       inkscape:collect="always"
       id="linearGradient970"><stop
         style="stop-color:#38d9ff;stop-opacity:1;"
         offset="0"
         id="stop966" /><stop
         style="stop-color:#0043e6;stop-opacity:1;"
         offset="1"
         id="stop968" /></linearGradient><linearGradient
       inkscape:collect="always"
       xlink:href="#linearGradient970"
       id="linearGradient972"
       x1="5.2916665"
       y1="0"
       x2="6.6748266"
       y2="10.583333"
       gradientUnits="userSpaceOnUse" /><filter
       style="color-interpolation-filters:sRGB"
       inkscape:label="Drop Shadow"
       id="filter1228"
       x="-0.10441778"
       y="-0.10636736"
       width="1.2088356"
       height="1.2681344"><feFlood
         flood-opacity="0.658824"
         flood-color="rgb(0,0,0)"
         result="flood"
         id="feFlood1218" /><feComposite
         in="flood"
         in2="SourceGraphic"
         operator="in"
         result="composite1"
         id="feComposite1220" /><feGaussianBlur
         in="composite1"
         stdDeviation="0.4"
         result="blur"
         id="feGaussianBlur1222" /><feOffset
         dx="2.77556e-17"
         dy="0.5"
         result="offset"
         id="feOffset1224" /><feComposite
         in="SourceGraphic"
         in2="offset"
         operator="over"
         result="composite2"
         id="feComposite1226" /></filter></defs><g
     inkscape:label="Layer 1"
     inkscape:groupmode="layer"
     id="layer1"><circle
       style="fill:url(#linearGradient972);fill-opacity:1;stroke-width:1.074;stroke-linecap:round;stroke-linejoin:round;paint-order:stroke markers fill"
       id="path234"
       cx="5.2916665"
       cy="5.2916665"
       r="5.2916665" /><path
       id="path954"
       style="fill:#ffffff;fill-opacity:1;stroke:none;stroke-width:0.007281;filter:url(#filter1228)"
       d="M 5.5795044,1.4851807 C 5.1200085,1.4837212 4.6573721,1.5270647 4.2204142,1.6309082 3.0813286,1.9016076 1.8509322,2.7259596 1.4825968,3.8871012 1.3589472,4.2769314 1.3744516,4.6974366 1.4371216,5.0963298 c 0.06583,0.419086 0.2178959,0.8284304 0.4154785,1.2019938 0.522665,0.988129 1.3621875,1.8180753 2.1998657,2.5440307 0.675035,0.585002 1.3774836,1.1385887 2.0980632,1.6681157 a 5.2916665,5.2916665 0 0 0 0.021187,-0.0036 5.2916665,5.2916665 0 0 0 0.4061768,-0.08578 5.2916665,5.2916665 0 0 0 0.025838,-0.0067 5.2916665,5.2916665 0 0 0 0.4175456,-0.125573 C 6.792291,10.12704 6.5644497,9.9633967 6.3381144,9.7973348 5.2722756,9.0154054 4.2348006,8.1828895 3.3165934,7.2284993 2.4881422,6.3674551 1.7573736,5.121581 2.2484416,3.9020874 2.4088612,3.5037312 2.7337811,3.1819473 3.0664795,2.9212687 3.5817615,2.5175205 4.1604805,2.343552 4.7991903,2.2536092 5.5789417,2.1437924 6.3801235,2.1946496 7.1328979,2.4334432 7.4583803,2.536692 7.8075167,2.6655931 8.0863281,2.8664917 8.2561539,2.9888615 8.3732661,3.2076682 8.5674357,3.291272 8.7363353,3.3639918 8.9297897,3.3006635 9.0547445,3.1734497 9.3069179,2.9167653 9.0777064,2.5881511 8.856307,2.4065715 8.5664386,2.1688269 8.2251572,2.0703442 7.882723,1.9373494 7.6103316,1.8315618 7.3256078,1.6824055 7.0331624,1.6433105 6.8201778,1.6148407 6.612241,1.556403 6.3970256,1.532723 6.129966,1.503353 5.8552019,1.4860563 5.5795044,1.4851807 Z M 5.935555,2.894397 C 5.901943,2.895807 5.868499,2.900687 5.8337524,2.909383 5.7796324,2.922953 5.7289828,2.942782 5.681307,2.971911 5.3797716,3.1561846 5.4837017,3.4726355 5.592423,3.7439569 5.655313,3.9008977 5.7796778,4.1154287 5.9665604,4.1413487 6.3005476,4.1876787 6.6537506,3.7589303 6.6259516,3.4369989 6.6015516,3.1544225 6.306383,2.934074 6.0383906,2.899564 6.0030606,2.895014 5.9691666,2.892984 5.9355545,2.894394 Z M 9.5518717,3.4163289 C 9.2983295,3.4291616 9.0897544,3.6821703 9.1405273,3.93361 9.1874373,4.1659336 9.3516087,4.363223 9.4650553,4.5661296 9.5986181,4.805227 9.6970599,5.0641737 9.8216227,5.3082031 10.021277,5.6992447 10.231488,6.086879 10.448458,6.4709229 a 5.2916665,5.2916665 0 0 0 0.0052,-0.020154 5.2916665,5.2916665 0 0 0 0.05478,-0.2883544 5.2916665,5.2916665 0 0 0 0.01602,-0.089917 5.2916665,5.2916665 0 0 0 0.03514,-0.3074748 5.2916665,5.2916665 0 0 0 0.0093,-0.083716 5.2916665,5.2916665 0 0 0 0.01447,-0.3896403 C 10.452421,5.0352571 10.324005,4.7813589 10.227799,4.5092855 10.145761,4.2775019 10.095084,4.0353483 10.010758,3.8049357 9.944759,3.6248661 9.8138078,3.4333027 9.6035482,3.4168457 9.5863092,3.4154951 9.5687746,3.4154734 9.5518717,3.4163289 Z M 7.3649251,4.3346191 c -0.075331,-2.275e-4 -0.1461704,0.0216 -0.2134236,0.057878 -0.05578,0.0301 -0.1034985,0.069162 -0.1462443,0.1157553 -0.1709168,0.1862696 -0.1201225,0.44244 0.012402,0.6366536 0.07999,0.1172198 0.1932062,0.210134 0.260966,0.3358968 C 7.3865513,5.68112 7.4765613,5.9719926 7.7473307,5.9960164 8.0210973,6.0203164 8.2645188,5.7959486 8.242391,5.5185262 8.223071,5.2762896 8.0512113,5.0819223 7.9250977,4.8860067 7.8487477,4.7674049 7.7880176,4.6361987 7.6992716,4.5258219 7.6262218,4.4349721 7.5177491,4.3464664 7.3974813,4.3361694 7.3865125,4.3352319 7.3756867,4.3346516 7.3649251,4.3346191 Z M 5.5743368,4.4674276 C 5.2635262,4.484404 4.9029712,4.744843 4.7847209,5.0198486 4.6851511,5.2514002 4.8879796,5.5644425 5.13302,5.5836385 c 0.3010194,0.02358 0.7253371,-0.210931 0.8557617,-0.4811076 0.1195078,-0.2475434 -0.0644,-0.6193753 -0.35295,-0.6351033 -0.020192,-0.0011 -0.040774,-0.00113 -0.061495,0 z M 3.3941081,4.545459 C 3.3245722,4.5455997 3.2579708,4.5667168 3.1977376,4.6023031 2.8253624,4.8223225 2.9461472,5.2666709 3.1512288,5.5578003 3.559104,6.1368671 4.0925655,6.5678536 4.7227091,6.880717 c 0.2431866,0.1206936 0.5437367,0.2651442 0.8221721,0.2449462 0.08433,-0.006 0.1671356,-0.02057 0.2377116,-0.07028 C 5.9958374,6.9050567 5.9292647,6.6219669 5.7490031,6.4812581 5.4974285,6.2848785 5.1706257,6.2276867 4.8736043,6.1334757 4.5676199,6.0364159 4.2768461,5.8871424 4.0684855,5.637382 3.9687157,5.5177952 3.8828925,5.3867738 3.8338745,5.2379232 3.7538647,4.9950086 3.7674088,4.5757595 3.4240804,4.5464925 c -0.010034,-8.5e-4 -0.020039,-0.00105 -0.029972,-0.00103 z m 4.3268676,2.9770792 c -0.032215,7.5e-4 -0.063944,0.00452 -0.096118,0.012919 -0.3493564,0.09091 -0.362514,0.4947291 -0.1570964,0.7307047 0.1673408,0.1922956 0.3789899,0.3477504 0.5668905,0.5193482 0.2107308,0.1924215 0.4184825,0.3879461 0.6278686,0.5818766 a 5.2916665,5.2916665 0 0 0 0.00258,-0.00258 5.2916665,5.2916665 0 0 0 0.2118733,-0.1855184 5.2916665,5.2916665 0 0 0 0.074414,-0.069247 5.2916665,5.2916665 0 0 0 0.1586466,-0.1586466 5.2916665,5.2916665 0 0 0 0.048059,-0.051676 C 8.8818676,8.6550086 8.6133922,8.4007299 8.3881185,8.1100993 8.2343417,7.9116697 8.1045136,7.5630215 7.8186442,7.5282227 c -0.032745,-0.004 -0.065453,-0.00643 -0.097668,-0.00568 z" /></g></svg>
