<?xml version="1.0" encoding="UTF-8" standalone="no"?>
<!-- Created with Inkscape (http://www.inkscape.org/) -->

<svg
   width="40"
   height="40"
   viewBox="0 0 10.583333 10.583333"
   version="1.1"
   id="svg5"
   xml:space="preserve"
   xmlns:inkscape="http://www.inkscape.org/namespaces/inkscape"
   xmlns:sodipodi="http://sodipodi.sourceforge.net/DTD/sodipodi-0.dtd"
   xmlns:xlink="http://www.w3.org/1999/xlink"
   xmlns="http://www.w3.org/2000/svg"
   xmlns:svg="http://www.w3.org/2000/svg"><sodipodi:namedview
     id="namedview7"
     pagecolor="#ffffff"
     bordercolor="#999999"
     borderopacity="1"
     inkscape:showpageshadow="0"
     inkscape:pageopacity="0"
     inkscape:pagecheckerboard="0"
     inkscape:deskcolor="#d1d1d1"
     inkscape:document-units="mm"
     showgrid="false" /><defs
     id="defs2"><linearGradient
       inkscape:collect="always"
       id="linearGradient970"><stop
         style="stop-color:#38d9ff;stop-opacity:1;"
         offset="0"
         id="stop966" /><stop
         style="stop-color:#0043e6;stop-opacity:1;"
         offset="1"
         id="stop968" /></linearGradient><linearGradient
       inkscape:collect="always"
       xlink:href="#linearGradient970"
       id="linearGradient972"
       x1="5.2916665"
       y1="0"
       x2="6.6748266"
       y2="10.583333"
       gradientUnits="userSpaceOnUse" /><filter
       style="color-interpolation-filters:sRGB"
       inkscape:label="Drop Shadow"
       id="filter1228"
       x="-0.10841258"
       y="-0.11583756"
       width="1.2168252"
       height="1.2920072"><feFlood
         flood-opacity="0.658824"
         flood-color="rgb(0,0,0)"
         result="flood"
         id="feFlood1218" /><feComposite
         in="flood"
         in2="SourceGraphic"
         operator="in"
         result="composite1"
         id="feComposite1220" /><feGaussianBlur
         in="composite1"
         stdDeviation="0.4"
         result="blur"
         id="feGaussianBlur1222" /><feOffset
         dx="2.77556e-17"
         dy="0.5"
         result="offset"
         id="feOffset1224" /><feComposite
         in="SourceGraphic"
         in2="offset"
         operator="over"
         result="composite2"
         id="feComposite1226" /></filter></defs><g
     inkscape:label="Layer 1"
     inkscape:groupmode="layer"
     id="layer1"><circle
       style="fill:url(#linearGradient972);fill-opacity:1;stroke-width:1.074;stroke-linecap:round;stroke-linejoin:round;paint-order:stroke markers fill"
       id="path234"
       cx="5.2916665"
       cy="5.2916665"
       r="5.2916665" /><path
       id="path954"
       style="fill:#000000;fill-opacity:1;stroke:none;stroke-width:0.007281;filter:url(#filter1228)"
       d="M 5.2969934,2.3092126 C 4.837498,2.3077531 4.3746735,2.3514151 3.937716,2.4552585 2.7986316,2.7259576 1.5684054,3.550194 1.2000703,4.7113344 1.0764209,5.1011642 1.0915821,5.5218548 1.154252,5.9207476 c 0.06583,0.4190856 0.2181236,0.8282138 0.415706,1.2017769 0.5226644,0.988128 1.3620801,1.8179176 2.1997575,2.5438723 0.36525,0.3165346 0.7388997,0.6237432 1.1187311,0.9230482 a 4.8872893,4.8872893 0 0 0 0.186137,0.0072 4.8872893,4.8872893 0 0 0 0.8442983,-0.07636 C 4.9011975,9.76754 3.912623,8.9662294 3.0337584,8.0527322 2.205308,7.1916888 1.4745509,5.9456223 1.9656184,4.7261299 2.1260378,4.3277741 2.4509686,4.0060094 2.7836666,3.7453311 3.2989481,3.3415833 3.8779407,3.167567 4.5166498,3.0776243 5.2964005,2.9678076 6.0972705,3.0187634 6.8500442,3.2575567 7.1755262,3.3608054 7.5248272,3.4900234 7.8036383,3.6909218 7.973464,3.8132915 8.0905615,4.0320923 8.2847309,4.115696 8.4536303,4.1884157 8.6470733,4.1250229 8.772028,3.9978092 9.0242011,3.7411251 8.794881,3.4124088 8.5734819,3.2308293 8.2836138,2.993085 7.942276,2.8946633 7.5998422,2.7616687 7.327451,2.6558812 7.0427389,2.5067626 6.7502938,2.4676677 6.5373094,2.4391979 6.3297796,2.38062 6.1145644,2.35694 5.847505,2.32757 5.5726906,2.3100882 5.2969934,2.3092126 Z m 0.3560467,1.4093911 c -0.033612,0.00141 -0.06739,0.0061 -0.1021367,0.014795 -0.05412,0.01357 -0.1045748,0.033394 -0.1522506,0.062523 -0.3015351,0.184274 -0.1974947,0.5009088 -0.088773,0.7722299 0.06289,0.1569406 0.1873007,0.3716496 0.3741831,0.3975695 0.3339869,0.04633 0.6869149,-0.3825258 0.6591159,-0.7044569 -0.0244,-0.2825761 -0.3195326,-0.502901 -0.5875247,-0.5374109 -0.03533,-0.00455 -0.069002,-0.00666 -0.102614,-0.00525 z m 3.6420806,0.5211836 c -0.00865,-6.73e-5 -0.017321,5.268e-4 -0.025773,9.546e-4 -0.253542,0.012833 -0.4621834,0.2654487 -0.4114105,0.5168881 0.04691,0.2323234 0.2111001,0.4299594 0.3245465,0.6328658 0.1335627,0.2390972 0.2319613,0.4981325 0.356524,0.7421616 0.1018569,0.1994963 0.2062441,0.3979401 0.313092,0.5956384 A 4.8872893,4.8872893 0 0 0 9.961873,5.7093151 4.8872893,4.8872893 0 0 0 9.9475547,5.340382 c -7.944e-4,-0.00223 -0.0016,-0.00445 -0.00239,-0.00668 C 9.8631304,5.1019168 9.8123344,4.8596556 9.7280085,4.6292432 9.6620096,4.4491738 9.5311529,4.2576761 9.3208935,4.2412192 9.312274,4.2405439 9.3037721,4.2398547 9.2951207,4.2397873 Z M 7.0824768,5.1590177 C 7.0071459,5.1587902 6.935911,5.18049 6.8686579,5.2167679 6.8128779,5.2468679 6.7653577,5.2856751 6.7226119,5.3322683 6.5516953,5.5185378 6.6024967,5.7747389 6.735021,5.9689523 6.815011,6.086172 6.9283304,6.1791908 6.9960901,6.3049535 7.1040161,6.5052705 7.1940044,6.796386 7.4647735,6.8204098 7.7385399,6.8447098 7.9818348,6.6200803 7.959707,6.3426582 7.9403871,6.1004218 7.7684331,5.906185 7.6423196,5.7102696 7.5659697,5.5916679 7.5053147,5.4603042 7.4165688,5.3499275 7.3435191,5.2590778 7.2351991,5.1707466 7.1149314,5.1604496 c -0.010969,-9.375e-4 -0.021693,-0.0014 -0.032455,-0.00143 z M 5.3227662,5.2907455 C 5.3125066,5.2907417 5.3021038,5.291135 5.2917434,5.2917 4.9809331,5.308676 4.6201045,5.5689011 4.5018543,5.8439064 4.4022844,6.0754578 4.6052245,6.3888488 4.8502646,6.4080447 5.1512837,6.4316247 5.5755931,6.1971285 5.7060175,5.9269522 5.8255252,5.679409 5.6418615,5.307428 5.3533118,5.2917 5.3432158,5.29115 5.3330258,5.2907492 5.3227662,5.2907455 Z m -2.2112121,0.07875 C 3.0420181,5.3696362 2.9751502,5.3911825 2.9149171,5.4267685 2.5425423,5.6467876 2.6635401,6.0911426 2.8686211,6.3822717 3.2764959,6.9613379 3.8096653,7.3919359 4.4398083,7.704799 4.6829946,7.8254924 4.9837169,7.970316 5.262152,7.950118 5.346482,7.944118 5.4292587,7.929191 5.4998346,7.879481 5.7130794,7.7291552 5.6466872,7.4460292 5.4664258,7.3053205 5.2148515,7.1089411 4.8881257,7.0520757 4.5911046,6.9578648 4.2851205,6.8608051 3.9943032,6.7112596 3.7859428,6.4614995 3.6861731,6.3419128 3.6001418,6.2108713 3.5511238,6.0620208 3.4711141,5.8191065 3.4849505,5.4001945 3.1416224,5.3709276 c -0.010034,-8.5e-4 -0.020135,-0.00145 -0.030068,-0.00143 z M 7.4385234,8.346733 c -0.032215,7.5e-4 -0.064235,0.00449 -0.096409,0.012886 -0.3493561,0.09091 -0.3624406,0.4947317 -0.1570232,0.730707 0.1673406,0.1922954 0.3791015,0.3476769 0.5670019,0.5192745 0.039053,0.03566 0.077577,0.072021 0.1164549,0.107864 A 4.8872893,4.8872893 0 0 0 8.4088222,9.2817136 C 8.3020096,9.1708555 8.1995537,9.055888 8.1052757,8.9342579 7.9514991,8.7358285 7.8217565,8.3872592 7.5358874,8.3524605 c -0.032745,-0.004 -0.065148,-0.00648 -0.097364,-0.00573 z"
       transform="matrix(1.0827406,0,0,1.0827406,-0.20279098,-0.89004057)" /></g></svg>
