<?xml version="1.0" encoding="UTF-8" standalone="no"?>
<svg
   inkscape:version="1.1.2 (0a00cf5339, 2022-02-04, custom)"
   sodipodi:docname="start.svg"
   id="svg12"
   version="1.1"
   height="32"
   width="32"
   xmlns:inkscape="http://www.inkscape.org/namespaces/inkscape"
   xmlns:sodipodi="http://sodipodi.sourceforge.net/DTD/sodipodi-0.dtd"
   xmlns:xlink="http://www.w3.org/1999/xlink"
   xmlns="http://www.w3.org/2000/svg"
   xmlns:svg="http://www.w3.org/2000/svg"
   xmlns:rdf="http://www.w3.org/1999/02/22-rdf-syntax-ns#"
   xmlns:cc="http://creativecommons.org/ns#"
   xmlns:dc="http://purl.org/dc/elements/1.1/">
  <metadata
     id="metadata16">
    <rdf:RDF>
      <cc:Work
         rdf:about="">
        <dc:format>image/svg+xml</dc:format>
        <dc:type
           rdf:resource="http://purl.org/dc/dcmitype/StillImage" />
        <dc:title />
      </cc:Work>
    </rdf:RDF>
  </metadata>
  <sodipodi:namedview
     inkscape:pagecheckerboard="0"
     inkscape:snap-midpoints="true"
     inkscape:snap-smooth-nodes="true"
     inkscape:snap-intersection-paths="true"
     inkscape:object-paths="true"
     inkscape:document-rotation="0"
     inkscape:snap-nodes="true"
     inkscape:snap-bbox-edge-midpoints="true"
     inkscape:bbox-nodes="true"
     inkscape:snap-bbox="true"
     inkscape:current-layer="blend"
     inkscape:window-maximized="1"
     inkscape:window-y="768"
     inkscape:window-x="0"
     inkscape:cy="5.8336307"
     inkscape:cx="10.208854"
     inkscape:zoom="11.313709"
     showgrid="true"
     id="namedview14"
     inkscape:window-height="819"
     inkscape:window-width="1440"
     inkscape:pageshadow="2"
     inkscape:pageopacity="0"
     guidetolerance="10"
     gridtolerance="10"
     objecttolerance="10"
     borderopacity="1"
     bordercolor="#666666"
     pagecolor="#d5d5d5">
    <inkscape:grid
       id="grid4539"
       type="xygrid" />
    <inkscape:grid
       opacity="1"
       color="#ff10d8"
       spacingx="0.5"
       spacingy="0.5"
       id="grid846"
       type="xygrid"
       enabled="false" />
  </sodipodi:namedview>
  <defs
     id="defs7386">
    <linearGradient
       inkscape:collect="always"
       id="light">
      <stop
         id="stop1202"
         offset="0"
         style="stop-color:#ffffff;stop-opacity:1" />
      <stop
         id="stop1204"
         offset="1"
         style="stop-color:#ffffff;stop-opacity:0;" />
    </linearGradient>
    <style
       type="text/css"
       id="current-color-scheme">      .ColorScheme-Text {
        color:#31363b;
        stop-color:#31363b;
      }
      .ColorScheme-Background {
        color:#eff0f1;
        stop-color:#eff0f1;
      }
      .ColorScheme-Highlight {
        color:#3daeff;
        stop-color:#3daeff;
      }</style>
    <g
       class="ColorScheme-Background"
       id="g9" />
    <radialGradient
       inkscape:collect="always"
       xlink:href="#light"
       id="radialGradient1070"
       cx="-6.0006971"
       cy="-6.0005536"
       fx="-6.0006971"
       fy="-6.0005536"
       r="14.50046"
       gradientTransform="matrix(1.5172063,1.5172063,-1.517168,1.517168,-6.0002507,12.207955)"
       gradientUnits="userSpaceOnUse" />
    <radialGradient
       inkscape:collect="always"
       xlink:href="#light"
       id="radialGradient1837"
       cx="6"
       cy="6"
       fx="6"
       fy="6"
       r="10.5"
       gradientUnits="userSpaceOnUse"
       gradientTransform="matrix(1.5238095,1.5238095,-1.5238095,1.5238095,6,-12.285714)" />
  </defs>
  <g
     id="32-32-start-here-kde">
    <rect
       style="opacity:0.003"
       y="0"
       x="0"
       height="32"
       width="32"
       id="rect6336-6" />
    <path
       class="ColorScheme-Highlight"
       sodipodi:nodetypes="sscccscccssccsscccccsscc"
       d="M 7.4999996,6 C 6.6689998,6 6,6.6689998 6,7.4999996 V 16 H 16 V 6 Z M 17,6 V 16 H 27 V 7.4999996 C 27,6.6689998 26.331,6 25.5,6 Z M 6,17 v 8.5 C 6,26.331 6.669,27 7.5,27 H 16 V 17 Z m 11,0 v 10 l 8.5,0 C 26.331,27 27,26.331 27,25.5 L 27,17 Z"
       style="fill:currentColor;fill-opacity:1;stroke-width:1.08333;stroke-linejoin:round"
       id="rect913" />
    <g
       id="blend"
       style="opacity:0.75">
      <path
         id="path1212"
         style="opacity:0.3;fill:none;fill-opacity:1;stroke-width:1.08333;stroke-linejoin:round"
         d="M 7.5,6 C 6.669,6 6,6.669 6,7.5 V 16 H 16 V 6 Z M 17,6 V 16 H 27 V 7.4999996 C 27,6.6689998 26.331,6 25.5,6 Z M 6,17 v 8.5 C 6,26.331 6.6689999,27 7.4999997,27 H 16 V 17 Z m 11,0 v 10 l 8.5,0 C 26.331,27 27,26.331 27,25.5 L 27,17 Z"
         sodipodi:nodetypes="sscccscccssccsscccccsscc"
         class="ColorScheme-Text" />
      <path
         class="ColorScheme-Text"
         sodipodi:nodetypes="sscccscccssccsscccccsscc"
         d="M 7.5,6 C 6.669,6 6,6.669 6,7.5 V 16 H 16 V 6 Z M 17,6 V 16 H 27 V 7.5 C 27,6.669 26.331,6 25.5,6 Z M 6,17 v 8.5 C 6,26.331 6.669,27 7.5,27 H 16 V 17 Z m 11,0 v 10 l 8.5,0 C 26.331,27 27,26.331 27,25.5 L 27,17 Z"
         style="opacity:0.3;fill:url(#radialGradient1837);fill-opacity:1;stroke-width:1.08333;stroke-linejoin:round"
         id="path908" />
    </g>
  </g>
  <g
     id="start-here-kde"
     transform="translate(-32)">
    <rect
       id="rect6336-6-6"
       width="48"
       height="48"
       x="-16"
       y="-16"
       style="opacity:0.003;stroke-width:1.5" />
    <path
       id="rect913-7"
       style="fill:currentColor;fill-opacity:1;stroke-width:1.08333;stroke-linejoin:round"
       d="m -4,-6 c -1.108,0 -2.029679,0.8923976 -2,2 V 7.996094 L 8,8 V -6 Z M 9,-6 V 8 H 23 V -4 c 0,-1.108 -0.892104,-2.0152003 -2,-2 z M -6,9 v 12 c 0,1.108 0.8920125,1.994719 2,2 H 8 V 9 Z M 9,9 v 14 h 12 c 1.108,0 2.016538,-0.892123 2,-2 V 9 Z"
       sodipodi:nodetypes="sscccscccssccsscccccsscc"
       class="ColorScheme-Highlight" />
    <g
       id="g858">
      <path
         class="ColorScheme-Text"
         sodipodi:nodetypes="sscccscccssccsscccccsscc"
         d="m -4,-6 c -1.108,0 -2.029679,0.8923976 -2,2 V 7.996094 L 8,8 V -6 Z M 9,-6 V 8 H 23 V -4 c 0,-1.108 -0.892104,-2.0152003 -2,-2 z M -6,9 v 12 c 0,1.108 0.8920125,1.994719 2,2 H 8 V 9 Z M 9,9 v 14 h 12 c 1.108,0 2.016538,-0.892123 2,-2 V 9 Z"
         style="opacity:0.4;fill:none;fill-opacity:1;stroke-width:1.08333;stroke-linejoin:round"
         id="path852" />
      <path
         id="path871"
         style="opacity:0.3;fill:url(#radialGradient1070);fill-opacity:1;stroke-width:1.08333;stroke-linejoin:round"
         d="m -4,-6 c -1.108,0 -2.029679,0.8923976 -2,2 V 7.996094 L 8,8 V -6 Z M 9,-6 V 8 H 23 V -4 c 0,-1.108 -0.892104,-2.0152003 -2,-2 z M -6,9 v 12 c 0,1.108 0.8920125,1.994719 2,2 H 8 V 9 Z M 9,9 v 14 h 12 c 1.108,0 2.016538,-0.892123 2,-2 V 9 Z"
         sodipodi:nodetypes="sscccscccssccsscccccsscc"
         class="ColorScheme-Text" />
    </g>
  </g>
</svg>
